<?xml version="1.0" encoding="UTF-8" standalone="no"?>
<!-- Created with Inkscape (http://www.inkscape.org/) -->

<svg
   xmlns:dc="http://purl.org/dc/elements/1.1/"
   xmlns:cc="http://creativecommons.org/ns#"
   xmlns:rdf="http://www.w3.org/1999/02/22-rdf-syntax-ns#"
   xmlns:svg="http://www.w3.org/2000/svg"
   xmlns="http://www.w3.org/2000/svg"
   xmlns:sodipodi="http://sodipodi.sourceforge.net/DTD/sodipodi-0.dtd"
   xmlns:inkscape="http://www.inkscape.org/namespaces/inkscape"
   width="331.62775mm"
   height="73.847008mm"
   viewBox="0 0 331.62775 73.847008"
   version="1.1"
   id="svg4897"
   inkscape:version="0.92.3 (2405546, 2018-03-11)"
   sodipodi:docname="three_logos.svg">
  <defs
     id="defs4891">
    <clipPath
       clipPathUnits="userSpaceOnUse"
       id="clipPath312">
      <path
         d="m 11181,2747 v 1617 h 1617 V 2747 Z"
         id="path310"
         inkscape:connector-curvature="0" />
    </clipPath>
  </defs>
  <sodipodi:namedview
     id="base"
     pagecolor="#ffffff"
     bordercolor="#666666"
     borderopacity="1.0"
     inkscape:pageopacity="0.0"
     inkscape:pageshadow="2"
     inkscape:zoom="1.9060214"
     inkscape:cx="622.68518"
     inkscape:cy="139.5534"
     inkscape:document-units="mm"
     inkscape:current-layer="layer1"
     showgrid="false"
     fit-margin-top="0"
     fit-margin-left="0"
     fit-margin-right="0"
     fit-margin-bottom="0"
     inkscape:window-width="2560"
     inkscape:window-height="1412"
     inkscape:window-x="0"
     inkscape:window-y="0"
     inkscape:window-maximized="1" />
  <metadata
     id="metadata4894">
    <rdf:RDF>
      <cc:Work
         rdf:about="">
        <dc:format>image/svg+xml</dc:format>
        <dc:type
           rdf:resource="http://purl.org/dc/dcmitype/StillImage" />
        <dc:title></dc:title>
      </cc:Work>
    </rdf:RDF>
  </metadata>
  <g
     inkscape:label="Layer 1"
     inkscape:groupmode="layer"
     id="layer1"
     transform="translate(112.14125,-177.67769)">
    <g
       id="g5801">
      <g
         id="g5656">
        <g
           transform="matrix(0.04702634,0,0,-0.04702634,-602.31444,332.37731)"
           id="g110">
          <path
             inkscape:connector-curvature="0"
             id="path112"
             style="fill:#f4e405;fill-opacity:1;fill-rule:nonzero;stroke:none"
             d="m 16190.5,2833.84 11.5,54.37 -47.7,28.83 55.1,5.14 12.8,54.4 21.5,-51.17 56.3,5.39 -42.6,-37.43 22.7,-51.22 -48,28.77 -41.6,-37.08" />
        </g>
        <g
           transform="matrix(0.04753786,0,0,-0.04753786,-602.31444,332.37731)"
           id="g114">
          <path
             inkscape:connector-curvature="0"
             id="path116"
             style="fill:#f4e405;fill-opacity:1;fill-rule:nonzero;stroke:none"
             d="m 16191.7,3007.58 11.4,54.16 -47.2,28.18 54.5,5.36 12.6,53.84 21.3,-50.64 55.7,5.04 -42.2,-36.74 22.2,-50.66 -47.2,28.49 -41.1,-37.03" />
        </g>
        <g
           transform="matrix(0.04933491,0,0,-0.04933491,-602.31444,332.37731)"
           id="g118">
          <path
             inkscape:connector-curvature="0"
             id="path120"
             style="fill:#f4e405;fill-opacity:1;fill-rule:nonzero;stroke:none"
             d="m 16195.7,2099.8 12.1,51.86 -46.6,27.17 53.7,5.2 10.9,51.86 21.7,-48.81 52.5,5.16 -39.7,-35.38 21.8,-48.79 -46.7,27.12 -39.7,-35.39" />
        </g>
        <g
           transform="matrix(0.04982986,0,0,-0.04982986,-602.31444,332.37731)"
           id="g122">
          <path
             inkscape:connector-curvature="0"
             id="path124"
             style="fill:#f4e405;fill-opacity:1;fill-rule:nonzero;stroke:none"
             d="m 16196.7,2272.3 10.8,51.31 -44.9,27.19 51.9,4.87 11.8,51.65 20.5,-48.62 53.2,5.15 -40.4,-35.39 21.4,-48.29 -45,27.15 -39.3,-35.02" />
        </g>
        <g
           transform="matrix(0.04999249,0,0,-0.04999249,-602.31444,332.37731)"
           id="g126">
          <path
             inkscape:connector-curvature="0"
             id="path128"
             style="fill:#f4e405;fill-opacity:1;fill-rule:nonzero;stroke:none"
             d="m 16197,2517.55 11.8,51.5 -46.1,26.77 53.3,5.15 10.5,51.15 21.5,-48.14 52,4.81 -39.1,-34.95 21.4,-48.16 -46.1,27.1 -39.2,-35.23" />
        </g>
        <g
           transform="matrix(0.04969334,0,0,-0.04969334,-602.31444,332.37731)"
           id="g130">
          <path
             inkscape:connector-curvature="0"
             id="path132"
             style="fill:#f4e405;fill-opacity:1;fill-rule:nonzero;stroke:none"
             d="m 16196.4,2772.61 10.9,51.5 -45.2,27.25 53.3,5.16 11,51.5 21.5,-48.45 52.1,4.81 -39.3,-35.13 20.5,-48.46 -45.4,26.95 -39.4,-35.13" />
        </g>
        <g
           transform="matrix(0.04908021,0,0,-0.04908021,-602.31444,332.37731)"
           id="g134">
          <path
             inkscape:connector-curvature="0"
             id="path136"
             style="fill:#f4e405;fill-opacity:1;fill-rule:nonzero;stroke:none"
             d="m 16195.1,2966.44 12,52.43 -47,27.28 54.3,4.92 10.7,52.45 21.8,-49.03 53.1,4.85 -39.9,-35.56 20.6,-49.36 -45.8,27.56 -39.8,-35.54" />
        </g>
        <g
           transform="matrix(0.04828222,0,0,-0.04828222,-602.31444,332.37731)"
           id="g138">
          <path
             inkscape:connector-curvature="0"
             id="path140"
             style="fill:#f4e405;fill-opacity:1;fill-rule:nonzero;stroke:none"
             d="m 16193.4,3065.06 11.2,52.95 -46.8,28.09 53.9,4.98 12.5,52.99 21.8,-49.84 54,5.27 -40.6,-36.16 20.9,-50.23 -46.4,28.07 -40.5,-36.12" />
        </g>
        <g
           transform="matrix(0.0486156,0,0,-0.0486156,-602.31444,332.37731)"
           id="g142">
          <path
             inkscape:connector-curvature="0"
             id="path144"
             style="fill:#246bbb;fill-opacity:1;fill-rule:nonzero;stroke:none"
             d="m 15838.1,2420.4 c 83.9,-5.89 190.4,32.8 264.7,65.04 7.7,4.02 15.8,7.73 21.7,9.87 -11.8,21.7 -21.7,41.51 -33.5,63.17 1.9,-2.17 -37.4,76.8 -59.4,116.44 -1.9,5.91 -5.9,13.92 -9.7,19.84 3.8,1.83 5.9,1.83 9.7,3.7 0,2.17 4,4.02 8,5.88 h 1.9 l 23.8,12.07 c 94.7,53.26 162,124.17 199.4,193.19 17.7,29.77 27.5,61.37 35.3,84.89 l -3.7,4 c -9.9,-25.69 -21.7,-49.22 -41.5,-74.93 -43.3,-61.27 -114.5,-126.34 -205.3,-173.7 l -4,-1.86 c 0,0 -13.9,-8.04 -37.5,-19.85 -5.8,-3.97 -13.9,-5.88 -21.6,-9.87 -74,-26.95 -140,-50.5 -219.6,-43.05 -57.3,7.76 -94.8,39.34 -94.8,39.34 -15.7,-69.05 -19.8,-140.27 -7.7,-213.07 0,0 41.5,-82.97 173.8,-81.1" />
        </g>
        <g
           transform="matrix(0.04920509,0,0,-0.04920509,-602.31444,332.37731)"
           id="g146">
          <path
             inkscape:connector-curvature="0"
             id="path148"
             style="fill:#f4e405;fill-opacity:1;fill-rule:nonzero;stroke:none"
             d="m 16300,2783.3 c -19.6,-48.93 -46.8,-101.58 -91.8,-148.34 -56.6,-66.11 -132.5,-128.52 -224.3,-177.48 -10.6,-7.03 -23.5,-11.61 -35.2,-19.26 -7.6,-3.97 -15.5,-7.95 -21.3,-9.82 -82,-33.95 -162.8,-66.04 -253.4,-66.04 -156.1,3.97 -183.2,60.55 -183.2,60.55 1.8,-3.96 7.6,-17.72 7.6,-23.53 11.7,-31.23 25.4,-62.45 39.2,-95.46 11.6,-17.76 23.2,-37.03 37,-54.76 0,0 81.6,-89.65 276.9,-68.22 63,7.02 138.6,32.73 194.8,64.25 8,1.81 13.8,3.68 19.6,3.68 -33,48.95 -64.2,103.38 -99.4,158.14 h 1.8 c 8,1.84 13.8,5.81 23.6,9.47 15.6,9.83 31.2,17.77 44.6,27.54 74.4,46.82 136.5,107.08 181.5,169.48 41,58.46 70.4,115.06 82,163.99 v 5.81" />
        </g>
        <g
           transform="matrix(0.04935149,0,0,-0.04935149,-602.31444,332.37731)"
           id="g150">
          <path
             inkscape:connector-curvature="0"
             id="path152"
             style="fill:#ea2124;fill-opacity:1;fill-rule:nonzero;stroke:none"
             d="m 16257.3,2399.85 c -42.7,-58.57 -112.8,-116.84 -194.3,-165.3 -8,-4 -17.7,-9.77 -27.4,-15.56 -5.8,-2.13 -11.7,-3.99 -15.6,-5.82 -127.2,-60.39 -293.4,-102.78 -427.6,-39.97 135.1,-127.46 372.7,-165.89 542.3,-90.25 0,1.81 -58.2,77.76 -79.7,106.74 1.9,2.12 5.8,2.12 8,3.98 17.4,7.61 30.8,17.37 42.7,23.19 72,48.78 124.5,108.86 159.3,163.49 17.6,28.94 29.2,56.4 35,81.72 l -3.9,1.84 c -5.8,-19.53 -21.4,-42.74 -38.8,-64.06" />
        </g>
        <g
           transform="matrix(0.04753927,0,0,-0.04753927,-602.31444,330.26063)"
           id="g154">
          <path
             inkscape:connector-curvature="0"
             id="path156"
             style="fill:#120f0e;fill-opacity:1;fill-rule:nonzero;stroke:none"
             d="m 16300,1721.26 v -18.74 h -70.6 c 0.8,7.08 3.1,13.79 6.9,20.13 3.8,6.33 11.4,14.73 22.7,25.18 9,8.48 14.6,14.18 16.6,17.22 2.8,4.16 4.2,8.24 4.2,12.34 0,4.45 -1.2,7.92 -3.6,10.33 -2.5,2.45 -5.8,3.64 -10,3.64 -4.2,0 -7.6,-1.26 -10.1,-3.82 -2.5,-2.5 -3.9,-6.72 -4.3,-12.63 l -20,2.01 c 1.2,11.11 4.9,19.07 11.2,23.9 6.3,4.78 14.3,7.23 23.7,7.23 10.3,0 18.5,-2.8 24.4,-8.38 5.9,-5.63 8.9,-12.56 8.9,-20.84 0,-4.76 -0.9,-9.27 -2.5,-13.56 -1.7,-4.27 -4.4,-8.72 -8.1,-13.42 -2.5,-3.1 -6.8,-7.57 -13.1,-13.41 -6.4,-5.83 -10.5,-9.67 -12.2,-11.61 -1.7,-1.9 -3.1,-3.78 -4.1,-5.57 h 40" />
        </g>
        <g
           transform="matrix(0.04776717,0,0,-0.04776717,-602.31444,330.26063)"
           id="g158">
          <path
             inkscape:connector-curvature="0"
             id="path160"
             style="fill:#120f0e;fill-opacity:1;fill-rule:nonzero;stroke:none"
             d="m 16266,1782.81 c -2.4,0 -4.6,-0.8 -6.5,-2.33 -1.9,-1.56 -3.4,-4.34 -4.4,-8.3 -1.4,-5.18 -2.1,-13.95 -2.1,-26.16 0,-12.31 0.7,-20.75 1.9,-25.33 1.2,-4.57 2.8,-7.63 4.6,-9.16 1.9,-1.51 4.1,-2.29 6.5,-2.29 2.5,0 4.6,0.81 6.5,2.32 1.9,1.58 3.4,4.34 4.5,8.31 1.3,5.13 2,13.84 2,26.15 0,12.21 -0.6,20.67 -1.8,25.26 -1.3,4.6 -2.9,7.64 -4.7,9.2 -1.9,1.53 -4,2.33 -6.5,2.33 z m 0,16.62 c 10.1,0 18,-3.62 23.8,-10.84 6.8,-8.6 10.2,-22.78 10.2,-42.57 0,-19.83 -3.5,-34.05 -10.3,-42.7 -5.7,-7.11 -13.6,-10.68 -23.7,-10.68 -10.2,0 -18.4,3.9 -24.6,11.72 -6.2,7.85 -9.3,21.76 -9.3,41.83 0,19.7 3.4,33.87 10.2,42.54 5.7,7.12 13.6,10.7 23.7,10.7" />
        </g>
        <g
           transform="matrix(0.04791992,0,0,-0.04791992,-602.31444,330.26063)"
           id="g162">
          <path
             inkscape:connector-curvature="0"
             id="path164"
             style="fill:#120f0e;fill-opacity:1;fill-rule:nonzero;stroke:none"
             d="m 16300,1689 h -20 v 75.32 c -7.3,-6.83 -15.9,-11.9 -25.9,-15.15 v 18.14 c 5.3,1.7 11,4.9 17.1,9.71 6.1,4.77 10.3,10.34 12.5,16.68 h 16.3 V 1689" />
        </g>
        <g
           transform="matrix(0.04817357,0,0,-0.04817357,-602.31444,330.26063)"
           id="g166">
          <path
             inkscape:connector-curvature="0"
             id="path168"
             style="fill:#120f0e;fill-opacity:1;fill-rule:nonzero;stroke:none"
             d="m 16267.9,1718.46 v 35.45 l -23.8,-35.45 z m 0,-38.35 v 20.88 h -42.4 v 17.43 l 44.9,65.83 h 16.7 v -65.79 h 12.9 v -17.47 h -12.9 v -20.88 h -19.2" />
        </g>
        <g
           transform="matrix(0.04833408,0,0,-0.04833408,-602.31444,330.26063)"
           id="g170">
          <path
             inkscape:connector-curvature="0"
             id="path172"
             style="fill:#120f0e;fill-opacity:1;fill-rule:nonzero;stroke:none"
             d="m 16261.2,1721.91 h 38.8 v -19.81 h -38.8 v 19.81" />
        </g>
        <g
           transform="matrix(0.0485581,0,0,-0.0485581,-602.31444,330.26063)"
           id="g174">
          <path
             inkscape:connector-curvature="0"
             id="path176"
             style="fill:#120f0e;fill-opacity:1;fill-rule:nonzero;stroke:none"
             d="m 16300,1685.14 v -18.35 h -69.1 c 0.7,6.94 2.9,13.51 6.7,19.72 3.8,6.19 11.1,14.41 22.1,24.64 9,8.3 14.4,13.88 16.4,16.86 2.8,4.07 4.1,8.07 4.1,12.08 0,4.36 -1.2,7.75 -3.5,10.12 -2.4,2.39 -5.7,3.56 -9.8,3.56 -4.2,0 -7.4,-1.24 -9.8,-3.74 -2.5,-2.45 -4,-6.58 -4.3,-12.36 l -19.6,1.97 c 1.2,10.87 4.8,18.66 11,23.39 6.2,4.69 13.9,7.08 23.2,7.08 10.1,0 18.1,-2.74 23.9,-8.21 5.7,-5.5 8.7,-12.29 8.7,-20.4 0,-4.65 -0.8,-9.08 -2.5,-13.28 -1.7,-4.17 -4.3,-8.53 -7.9,-13.13 -2.4,-3.04 -6.7,-7.41 -12.9,-13.13 -6.3,-5.71 -10.2,-9.47 -11.9,-11.36 -1.6,-1.86 -2.9,-3.71 -4,-5.46 h 39.2" />
        </g>
        <g
           transform="matrix(0.04878599,0,0,-0.04878599,-602.31444,330.26063)"
           id="g178">
          <path
             inkscape:connector-curvature="0"
             id="path180"
             style="fill:#120f0e;fill-opacity:1;fill-rule:nonzero;stroke:none"
             d="m 16266.7,1745.58 c -2.3,0 -4.4,-0.79 -6.3,-2.28 -1.8,-1.53 -3.3,-4.25 -4.3,-8.12 -1.4,-5.07 -2,-13.66 -2,-25.62 0,-12.05 0.6,-20.31 1.8,-24.8 1.2,-4.47 2.7,-7.47 4.5,-8.97 1.9,-1.48 4,-2.24 6.3,-2.24 2.4,0 4.6,0.79 6.5,2.28 1.8,1.53 3.3,4.24 4.3,8.13 1.3,5.02 2,13.55 2,25.6 0,11.96 -0.6,20.24 -1.8,24.74 -1.2,4.5 -2.8,7.47 -4.6,9 -1.9,1.49 -4,2.28 -6.4,2.28 z m 0,16.27 c 9.9,0 17.8,-3.54 23.3,-10.61 6.7,-8.41 10,-22.3 10,-41.68 0,-19.42 -3.3,-33.34 -10.1,-41.8 -5.4,-6.97 -13.3,-10.46 -23.2,-10.46 -9.9,0 -18,3.81 -24,11.47 -6.1,7.68 -9.2,21.31 -9.2,40.95 0,19.3 3.4,33.17 10.1,41.66 5.6,6.97 13.3,10.47 23.1,10.47" />
        </g>
        <g
           transform="matrix(0.04901283,0,0,-0.04901283,-602.31444,330.26063)"
           id="g182">
          <path
             inkscape:connector-curvature="0"
             id="path184"
             style="fill:#120f0e;fill-opacity:1;fill-rule:nonzero;stroke:none"
             d="m 16300,1669.51 v -18.18 h -68.5 c 0.7,6.87 3,13.38 6.7,19.53 3.7,6.13 11,14.28 21.9,24.42 8.9,8.22 14.3,13.75 16.2,16.7 2.8,4.03 4.1,7.99 4.1,11.97 0,4.32 -1.2,7.68 -3.5,10.02 -2.4,2.37 -5.6,3.53 -9.7,3.53 -4.1,0 -7.4,-1.23 -9.7,-3.7 -2.5,-2.43 -3.9,-6.52 -4.2,-12.25 l -19.5,1.95 c 1.1,10.77 4.8,18.49 10.9,23.17 6.1,4.65 13.8,7.02 23,7.02 10.1,0 17.9,-2.72 23.7,-8.13 5.7,-5.46 8.6,-12.18 8.6,-20.21 0,-4.62 -0.9,-9 -2.4,-13.16 -1.7,-4.13 -4.4,-8.46 -7.9,-13.01 -2.4,-3.01 -6.6,-7.35 -12.8,-13.01 -6.1,-5.66 -10.1,-9.38 -11.7,-11.26 -1.6,-1.84 -3,-3.67 -4,-5.4 h 38.8" />
        </g>
        <g
           transform="matrix(0.04924072,0,0,-0.04924072,-602.31444,330.26063)"
           id="g186">
          <path
             inkscape:connector-curvature="0"
             id="path188"
             style="fill:#120f0e;fill-opacity:1;fill-rule:nonzero;stroke:none"
             d="m 16267.1,1729.46 c -2.3,0 -4.4,-0.78 -6.3,-2.26 -1.9,-1.51 -3.3,-4.21 -4.3,-8.05 -1.3,-5.02 -2.1,-13.53 -2.1,-25.38 0,-11.94 0.7,-20.12 1.9,-24.57 1.2,-4.43 2.7,-7.4 4.5,-8.89 1.9,-1.46 4,-2.22 6.3,-2.22 2.4,0 4.4,0.79 6.3,2.26 1.8,1.52 3.2,4.2 4.3,8.06 1.3,4.97 2,13.42 2,25.36 0,11.85 -0.6,20.05 -1.8,24.51 -1.2,4.46 -2.8,7.41 -4.6,8.92 -1.8,1.48 -3.8,2.26 -6.2,2.26 z m 0,16.12 c 9.8,0 17.6,-3.51 23,-10.51 6.6,-8.34 9.9,-22.1 9.9,-41.3 0,-19.24 -3.3,-33.03 -9.9,-41.42 -5.6,-6.9 -13.2,-10.36 -23,-10.36 -9.9,0 -17.8,3.78 -23.9,11.37 -6,7.61 -9,21.11 -9,40.58 0,19.11 3.3,32.85 9.9,41.27 5.5,6.91 13.1,10.37 23,10.37" />
        </g>
        <g
           transform="matrix(0.04616662,0,0,-0.04616662,-602.31444,330.26063)"
           id="g190">
          <path
             inkscape:connector-curvature="0"
             id="path192"
             style="fill:#120f0e;fill-opacity:1;fill-rule:nonzero;stroke:none"
             d="m 16212.7,1956.69 21.1,2.09 c 1.2,-7.12 3.8,-12.26 7.7,-15.62 3.9,-3.32 9.1,-4.99 15.7,-4.99 7,0 12.3,1.49 15.8,4.46 3.5,2.95 5.4,6.39 5.4,10.34 0,2.54 -0.8,4.69 -2.3,6.47 -1.5,1.83 -4.1,3.36 -7.8,4.66 -2.5,0.92 -8.3,2.44 -17.4,4.69 -11.6,2.9 -19.8,6.46 -24.4,10.65 -6.6,5.89 -9.9,13.11 -9.9,21.6 0,5.5 1.6,10.58 4.6,15.36 3.1,4.75 7.6,8.37 13.5,10.85 5.8,2.49 12.8,3.76 21.1,3.76 13.5,0 23.6,-2.96 30.4,-8.87 6.8,-5.91 10.4,-13.77 10.7,-23.69 l -21.7,-0.94 c -0.9,5.49 -2.9,9.51 -5.9,11.91 -3.1,2.44 -7.7,3.64 -13.8,3.64 -6.2,0 -11.2,-1.3 -14.7,-3.88 -2.3,-1.64 -3.5,-3.9 -3.5,-6.65 0,-2.57 1,-4.75 3.2,-6.55 2.8,-2.32 9.4,-4.7 19.9,-7.15 10.6,-2.53 18.4,-5.1 23.5,-7.78 4.9,-2.62 9,-6.27 11.9,-10.89 2.8,-4.64 4.2,-10.32 4.2,-17.1 0,-6.19 -1.7,-11.92 -5.1,-17.31 -3.4,-5.34 -8.3,-9.36 -14.5,-11.94 -6.3,-2.64 -14.1,-3.96 -23.4,-3.96 -13.5,0 -24,3.15 -31.3,9.41 -7.3,6.3 -11.6,15.44 -13,27.43" />
        </g>
        <g
           transform="matrix(0.0463236,0,0,-0.0463236,-602.31444,330.26063)"
           id="g194">
          <path
             inkscape:connector-curvature="0"
             id="path196"
             style="fill:#120f0e;fill-opacity:1;fill-rule:nonzero;stroke:none"
             d="m 16298.3,1992.79 v -16.37 h -14 v -31.25 c 0,-6.33 0.1,-10.03 0.4,-11.05 0.3,-1.04 0.9,-1.91 1.8,-2.57 0.9,-0.69 2.2,-1.06 3.5,-1.06 1.9,0 4.7,0.67 8.2,1.97 l 1.8,-15.91 c -4.8,-2 -10.1,-3.01 -16.2,-3.01 -3.7,0 -7,0.57 -10,1.82 -3,1.23 -5.2,2.88 -6.5,4.82 -1.4,1.99 -2.4,4.62 -2.9,8.01 -0.4,2.36 -0.7,7.2 -0.7,14.45 v 33.78 h -9.4 v 16.37 h 9.4 v 15.41 l 20.6,11.98 v -27.39 h 14" />
        </g>
        <g
           transform="matrix(0.04649964,0,0,-0.04649964,-602.31444,330.26063)"
           id="g198">
          <path
             inkscape:connector-curvature="0"
             id="path200"
             style="fill:#120f0e;fill-opacity:1;fill-rule:nonzero;stroke:none"
             d="m 16270.4,1907.99 h -20.5 v 77.25 h 19.1 v -10.97 c 3.2,5.19 6.2,8.62 8.7,10.29 2.6,1.6 5.5,2.44 8.9,2.44 4.6,0 9.1,-1.28 13.4,-3.86 l -6.3,-17.82 c -3.4,2.25 -6.7,3.35 -9.6,3.35 -2.8,0 -5.3,-0.79 -7.2,-2.38 -2.1,-1.54 -3.6,-4.4 -4.7,-8.53 -1.3,-4.1 -1.8,-12.73 -1.8,-25.85 v -23.92" />
        </g>
        <g
           transform="matrix(0.046724,0,0,-0.046724,-602.31444,330.26063)"
           id="g202">
          <path
             inkscape:connector-curvature="0"
             id="path204"
             style="fill:#120f0e;fill-opacity:1;fill-rule:nonzero;stroke:none"
             d="m 16281,1898.82 v 11.51 c -2.7,-4.08 -6.4,-7.33 -11,-9.69 -4.5,-2.33 -9.3,-3.51 -14.4,-3.51 -5.2,0 -9.8,1.12 -13.9,3.34 -4.1,2.29 -7.1,5.49 -8.9,9.58 -1.8,4.06 -2.8,9.79 -2.8,17.03 v 48.62 h 20.4 v -35.31 c 0,-10.81 0.4,-17.44 1.1,-19.92 0.8,-2.39 2.1,-4.31 4.1,-5.78 2,-1.38 4.5,-2.09 7.5,-2.09 3.5,0 6.6,0.95 9.4,2.82 2.7,1.94 4.5,4.28 5.6,7.14 1.1,2.81 1.5,9.71 1.5,20.73 v 32.41 h 20.4 v -76.88 h -19" />
        </g>
        <g
           transform="matrix(0.04697942,0,0,-0.04697942,-602.31444,330.26063)"
           id="g206">
          <path
             inkscape:connector-curvature="0"
             id="path208"
             style="fill:#120f0e;fill-opacity:1;fill-rule:nonzero;stroke:none"
             d="m 16299,1942.38 -19.9,-3.61 c -0.7,3.97 -2.2,6.98 -4.6,9 -2.4,2.02 -5.5,3.02 -9.3,3.02 -5.1,0 -9,-1.72 -12.1,-5.24 -3,-3.48 -4.4,-9.31 -4.4,-17.45 0,-9.08 1.5,-15.48 4.5,-19.18 3.1,-3.77 7.2,-5.65 12.3,-5.65 3.9,0 7,1.08 9.4,3.27 2.5,2.19 4.2,5.95 5.2,11.3 l 19.9,-3.41 c -2,-9.08 -6.1,-16 -11.9,-20.67 -5.8,-4.64 -13.7,-6.93 -23.5,-6.93 -11.2,0 -20.2,3.48 -26.8,10.54 -6.7,7.02 -10,16.82 -10,29.27 0,12.66 3.4,22.48 10,29.52 6.7,7.05 15.7,10.52 27.1,10.52 9.3,0 16.8,-1.96 22.3,-5.99 5.4,-4.02 9.3,-10.13 11.8,-18.31" />
        </g>
        <g
           transform="matrix(0.04712652,0,0,-0.04712652,-602.31444,330.26063)"
           id="g210">
          <path
             inkscape:connector-curvature="0"
             id="path212"
             style="fill:#120f0e;fill-opacity:1;fill-rule:nonzero;stroke:none"
             d="m 16298.3,1958.83 v -16.08 h -13.8 v -30.73 c 0,-6.21 0.2,-9.85 0.5,-10.85 0.3,-1.02 0.9,-1.88 1.8,-2.53 0.9,-0.68 2,-1.05 3.3,-1.05 1.9,0 4.7,0.67 8.2,1.95 l 1.7,-15.65 c -4.7,-1.96 -10,-2.95 -16,-2.95 -3.6,0 -6.8,0.56 -9.8,1.79 -2.9,1.2 -5,2.83 -6.5,4.74 -1.2,1.95 -2.2,4.54 -2.7,7.87 -0.5,2.32 -0.7,7.07 -0.7,14.2 v 33.21 h -9.2 v 16.08 h 9.2 v 15.15 l 20.2,11.78 v -26.93 h 13.8" />
        </g>
        <g
           transform="matrix(0.04736147,0,0,-0.04736147,-602.31444,330.26063)"
           id="g214">
          <path
             inkscape:connector-curvature="0"
             id="path216"
             style="fill:#120f0e;fill-opacity:1;fill-rule:nonzero;stroke:none"
             d="m 16281.4,1873.27 v 11.35 c -2.9,-4.03 -6.4,-7.23 -11,-9.55 -4.4,-2.31 -9.2,-3.47 -14.2,-3.47 -5.1,0 -9.6,1.11 -13.7,3.3 -4,2.25 -7,5.41 -8.8,9.44 -1.8,4.01 -2.7,9.66 -2.7,16.8 v 47.97 h 20.1 v -34.83 c 0,-10.67 0.3,-17.21 1.1,-19.65 0.7,-2.37 2.1,-4.26 4,-5.71 1.9,-1.36 4.4,-2.06 7.4,-2.06 3.5,0 6.5,0.94 9.3,2.78 2.7,1.92 4.5,4.23 5.5,7.05 1,2.76 1.6,9.58 1.6,20.45 v 31.97 h 20 v -75.84 h -18.6" />
        </g>
        <g
           transform="matrix(0.04756185,0,0,-0.04756185,-602.31444,330.26063)"
           id="g218">
          <path
             inkscape:connector-curvature="0"
             id="path220"
             style="fill:#120f0e;fill-opacity:1;fill-rule:nonzero;stroke:none"
             d="m 16271.1,1865.37 h -20.1 v 75.52 h 18.7 v -10.72 c 3.2,5.08 6,8.43 8.5,10.05 2.6,1.57 5.4,2.39 8.7,2.39 4.5,0 8.9,-1.25 13.1,-3.77 l -6.2,-17.42 c -3.3,2.2 -6.5,3.27 -9.4,3.27 -2.7,0 -5.2,-0.77 -7.1,-2.32 -1.9,-1.51 -3.4,-4.31 -4.5,-8.34 -1.2,-4.02 -1.7,-12.45 -1.7,-25.28 v -23.38" />
        </g>
        <g
           transform="matrix(0.04777881,0,0,-0.04777881,-602.31444,330.26063)"
           id="g222">
          <path
             inkscape:connector-curvature="0"
             id="path224"
             style="fill:#120f0e;fill-opacity:1;fill-rule:nonzero;stroke:none"
             d="m 16276.2,1893.03 c -2.6,-0.86 -6.6,-1.87 -12.2,-3.04 -5.5,-1.21 -9,-2.35 -10.8,-3.47 -2.6,-1.88 -3.8,-4.16 -3.8,-7 0,-2.81 1,-5.17 3.1,-7.24 2,-2 4.7,-3.03 7.9,-3.03 3.6,0 7,1.16 10.2,3.54 2.5,1.75 4,3.98 4.7,6.59 0.6,1.68 0.9,4.92 0.9,9.68 z m -26.6,16.14 -18.1,3.29 c 2,7.23 5.5,12.63 10.4,16.1 5,3.47 12.4,5.25 22.1,5.25 8.9,0 15.5,-1.06 19.8,-3.19 4.4,-2.09 7.4,-4.75 9.3,-8 1.7,-3.21 2.5,-9.15 2.5,-17.78 l -0.1,-23.24 c 0,-6.59 0.3,-11.44 0.9,-14.6 0.6,-3.12 1.9,-6.48 3.6,-10.09 h -19.7 c -0.5,1.35 -1.2,3.31 -1.9,5.9 -0.3,1.15 -0.6,1.96 -0.7,2.33 -3.4,-3.29 -7,-5.78 -10.9,-7.45 -3.9,-1.63 -8,-2.43 -12.4,-2.43 -7.7,0 -13.8,2.07 -18.3,6.24 -4.5,4.22 -6.7,9.52 -6.7,15.97 0,4.24 1,8 3,11.36 2.1,3.34 4.9,5.84 8.6,7.61 3.7,1.78 8.9,3.31 15.8,4.65 9.3,1.75 15.8,3.38 19.4,4.88 v 2 c 0,3.83 -1,6.53 -2.9,8.17 -1.9,1.66 -5.4,2.48 -10.7,2.48 -3.5,0 -6.3,-0.76 -8.2,-2.12 -2,-1.39 -3.6,-3.83 -4.8,-7.33" />
        </g>
        <g
           transform="matrix(0.04788182,0,0,-0.04788182,-602.31444,330.26063)"
           id="g226">
          <path
             inkscape:connector-curvature="0"
             id="path228"
             style="fill:#120f0e;fill-opacity:1;fill-rule:nonzero;stroke:none"
             d="m 16280.1,1956.47 h 19.9 v -103.59 h -19.9 v 103.59" />
        </g>
        <g
           transform="matrix(0.04809807,0,0,-0.04809807,-602.31444,330.26063)"
           id="g230">
          <path
             inkscape:connector-curvature="0"
             id="path232"
             style="fill:#120f0e;fill-opacity:1;fill-rule:nonzero;stroke:none"
             d="m 16279.2,1948.49 h 20.8 v -103.13 h -20.8 v 103.13" />
        </g>
        <g
           transform="matrix(0.04835701,0,0,-0.04835701,-602.31444,330.26063)"
           id="g234">
          <path
             inkscape:connector-curvature="0"
             id="path236"
             style="fill:#120f0e;fill-opacity:1;fill-rule:nonzero;stroke:none"
             d="m 16300,1835.52 h -19.7 v 37.92 c 0,7.99 -0.4,13.19 -1.2,15.55 -0.9,2.37 -2.3,4.19 -4.2,5.52 -1.9,1.29 -4.1,1.96 -6.8,1.96 -3.4,0 -6.5,-0.96 -9.2,-2.81 -2.6,-1.88 -4.5,-4.34 -5.5,-7.43 -1,-3.06 -1.6,-8.75 -1.6,-17.06 v -33.65 h -19.6 v 74.27 h 18.3 v -10.92 c 6.5,8.42 14.6,12.62 24.5,12.62 4.3,0 8.3,-0.78 11.9,-2.34 3.5,-1.56 6.2,-3.55 8.1,-5.97 1.9,-2.45 3.2,-5.21 3.8,-8.27 0.8,-3.1 1.2,-7.48 1.2,-13.21 v -46.18" />
        </g>
        <g
           transform="matrix(0.04860114,0,0,-0.04860114,-602.31444,330.26063)"
           id="g238">
          <path
             inkscape:connector-curvature="0"
             id="path240"
             style="fill:#120f0e;fill-opacity:1;fill-rule:nonzero;stroke:none"
             d="m 16231,1847.35 19.6,3.02 c 0.8,-3.8 2.5,-6.7 5.1,-8.66 2.5,-1.96 6,-2.95 10.7,-2.95 5,0 8.8,0.95 11.4,2.78 1.7,1.29 2.6,3.08 2.6,5.22 0,1.51 -0.5,2.71 -1.4,3.71 -1.1,0.92 -3.2,1.78 -6.6,2.55 -15.7,3.47 -25.8,6.66 -30,9.53 -5.8,3.98 -8.7,9.55 -8.7,16.64 0,6.4 2.5,11.77 7.6,16.15 5,4.33 12.8,6.54 23.4,6.54 10.2,0 17.7,-1.67 22.6,-4.92 4.9,-3.28 8.3,-8.22 10.2,-14.66 l -18.5,-3.36 c -0.8,2.86 -2.3,5.05 -4.5,6.59 -2.2,1.53 -5.3,2.28 -9.3,2.28 -5.2,0 -8.9,-0.68 -11.1,-2.14 -1.5,-1.01 -2.3,-2.37 -2.3,-3.96 0,-1.4 0.7,-2.59 2,-3.58 1.7,-1.27 7.8,-3.09 18.3,-5.52 10.3,-2.34 17.6,-5.23 21.7,-8.68 4.2,-3.49 6.2,-8.3 6.2,-14.54 0,-6.76 -2.8,-12.61 -8.6,-17.46 -5.6,-4.88 -14,-7.26 -25,-7.26 -10.1,0 -18,2 -24,6.09 -5.8,4.06 -9.7,9.62 -11.4,16.59" />
        </g>
        <g
           transform="matrix(0.04875812,0,0,-0.04875812,-602.31444,330.26063)"
           id="g242">
          <path
             inkscape:connector-curvature="0"
             id="path244"
             style="fill:#120f0e;fill-opacity:1;fill-rule:nonzero;stroke:none"
             d="m 16298.3,1894.08 v -15.55 h -13.3 v -29.69 c 0,-6.01 0.2,-9.52 0.5,-10.49 0.2,-0.99 0.8,-1.81 1.6,-2.44 1,-0.66 2,-1.02 3.4,-1.02 1.8,0 4.4,0.64 7.8,1.88 l 1.7,-15.12 c -4.6,-1.9 -9.7,-2.85 -15.5,-2.85 -3.5,0 -6.6,0.54 -9.5,1.73 -2.7,1.16 -4.8,2.73 -6.1,4.58 -1.3,1.88 -2.3,4.39 -2.8,7.61 -0.4,2.23 -0.6,6.83 -0.6,13.72 v 32.09 h -9 v 15.55 h 9 v 14.64 l 19.5,11.38 v -26.02 h 13.3" />
        </g>
        <g
           transform="matrix(0.0489338,0,0,-0.0489338,-602.31444,330.26063)"
           id="g246">
          <path
             inkscape:connector-curvature="0"
             id="path248"
             style="fill:#120f0e;fill-opacity:1;fill-rule:nonzero;stroke:none"
             d="m 16271.9,1813.87 h -19.4 v 73.4 h 18 v -10.42 c 3.1,4.94 5.9,8.19 8.4,9.78 2.4,1.52 5.2,2.32 8.3,2.32 4.4,0 8.7,-1.22 12.8,-3.67 l -6,-16.93 c -3.2,2.14 -6.3,3.18 -9.1,3.18 -2.7,0 -5,-0.75 -6.9,-2.26 -1.9,-1.47 -3.4,-4.19 -4.5,-8.11 -1,-3.9 -1.6,-12.1 -1.6,-24.56 v -22.73" />
        </g>
        <g
           transform="matrix(0.04915852,0,0,-0.04915852,-602.31444,330.26063)"
           id="g250">
          <path
             inkscape:connector-curvature="0"
             id="path252"
             style="fill:#120f0e;fill-opacity:1;fill-rule:nonzero;stroke:none"
             d="m 16282.1,1805.59 v 10.94 c -2.7,-3.89 -6.2,-6.97 -10.6,-9.22 -4.3,-2.21 -8.9,-3.33 -13.7,-3.33 -4.9,0 -9.3,1.06 -13.2,3.18 -3.9,2.17 -6.7,5.2 -8.5,9.1 -1.7,3.86 -2.6,9.3 -2.6,16.18 v 46.21 h 19.4 v -33.55 c 0,-10.29 0.3,-16.58 1,-18.94 0.7,-2.27 2,-4.1 3.9,-5.49 1.9,-1.32 4.3,-2 7.2,-2 3.3,0 6.2,0.9 8.9,2.7 2.6,1.84 4.4,4.05 5.4,6.77 0.9,2.68 1.4,9.24 1.4,19.71 v 30.8 h 19.3 v -73.06 h -17.9" />
        </g>
        <g
           transform="matrix(0.04953882,0,0,-0.04953882,-602.31444,330.26063)"
           id="g254">
          <path
             inkscape:connector-curvature="0"
             id="path256"
             style="fill:#120f0e;fill-opacity:1;fill-rule:nonzero;stroke:none"
             d="m 16193.3,1864.24 h 17.7 v -9.87 c 6.3,7.66 13.9,11.54 22.6,11.54 4.7,0 8.6,-0.97 12.1,-2.86 3.4,-1.93 6.2,-4.81 8.4,-8.68 3.2,3.87 6.6,6.75 10.3,8.68 3.7,1.89 7.6,2.86 11.8,2.86 5.4,0 9.8,-1.11 13.5,-3.29 3.7,-2.14 6.5,-5.31 8.3,-9.5 1.3,-3.12 2,-8.11 2,-15.04 v -46.34 h -19.2 v 41.46 c 0,7.17 -0.7,11.81 -1.9,13.93 -1.9,2.74 -4.6,4.06 -8.3,4.06 -2.7,0 -5.2,-0.81 -7.6,-2.45 -2.3,-1.61 -4,-4 -5.1,-7.22 -1.1,-3.14 -1.6,-8.14 -1.6,-14.94 v -34.84 h -19.1 v 39.73 c 0,7.06 -0.4,11.6 -1.1,13.68 -0.6,2.04 -1.7,3.54 -3.2,4.56 -1.4,1 -3.3,1.48 -5.8,1.48 -2.9,0 -5.6,-0.78 -7.9,-2.39 -2.4,-1.54 -4.2,-3.9 -5.2,-6.86 -1,-3.04 -1.5,-7.97 -1.5,-14.97 v -35.23 h -19.2 v 72.5" />
        </g>
        <g
           transform="matrix(0.04978612,0,0,-0.04978612,-602.31444,330.26063)"
           id="g258">
          <path
             inkscape:connector-curvature="0"
             id="path260"
             style="fill:#120f0e;fill-opacity:1;fill-rule:nonzero;stroke:none"
             d="m 16280.8,1825.1 c -0.1,5.49 -1.6,9.72 -4.3,12.6 -2.7,2.86 -6,4.28 -9.9,4.28 -4.2,0 -7.6,-1.5 -10.3,-4.55 -2.8,-3.02 -4.1,-7.12 -4,-12.33 z m -1.1,-19.31 19,-3.17 c -2.5,-6.98 -6.3,-12.3 -11.5,-15.95 -5.3,-3.65 -11.9,-5.48 -19.9,-5.48 -12.5,0 -21.8,4.1 -27.8,12.3 -4.8,6.56 -7.2,14.87 -7.2,24.84 0,12.02 3.1,21.37 9.5,28.11 6.1,6.81 14.1,10.17 23.6,10.17 10.8,0 19.2,-3.55 25.5,-10.66 6.2,-7.07 9.1,-17.93 8.8,-32.56 h -47.8 c 0.1,-5.65 1.7,-10.06 4.6,-13.2 3,-3.12 6.7,-4.72 11,-4.72 3,0 5.5,0.81 7.6,2.43 2,1.68 3.6,4.26 4.6,7.89" />
        </g>
        <g
           transform="matrix(0.05003341,0,0,-0.05003341,-602.31444,330.26063)"
           id="g262">
          <path
             inkscape:connector-curvature="0"
             id="path264"
             style="fill:#120f0e;fill-opacity:1;fill-rule:nonzero;stroke:none"
             d="m 16300,1774.01 h -19 v 36.65 c 0,7.73 -0.4,12.75 -1.2,15.03 -0.8,2.3 -2.2,4.06 -3.9,5.34 -1.9,1.25 -4.1,1.9 -6.6,1.9 -3.4,0 -6.3,-0.93 -8.9,-2.72 -2.6,-1.82 -4.4,-4.2 -5.4,-7.18 -1,-2.95 -1.5,-8.46 -1.5,-16.49 v -32.53 h -18.9 v 71.79 h 17.6 v -10.55 c 6.3,8.14 14.2,12.19 23.7,12.19 4.1,0 8,-0.75 11.5,-2.26 3.4,-1.51 6,-3.43 7.9,-5.77 1.7,-2.36 3,-5.03 3.6,-7.99 0.8,-3 1.1,-7.23 1.1,-12.77 v -44.64" />
        </g>
        <g
           transform="matrix(0.05019851,0,0,-0.05019851,-602.31444,330.26063)"
           id="g266">
          <path
             inkscape:connector-curvature="0"
             id="path268"
             style="fill:#120f0e;fill-opacity:1;fill-rule:nonzero;stroke:none"
             d="m 16298.4,1839.73 v -15.1 h -12.9 v -28.84 c 0,-5.83 0.1,-9.24 0.4,-10.19 0.2,-0.96 0.8,-1.76 1.6,-2.37 0.9,-0.64 2,-0.99 3.2,-0.99 1.8,0 4.3,0.63 7.7,1.83 l 1.6,-14.68 c -4.4,-1.85 -9.4,-2.78 -15,-2.78 -3.4,0 -6.4,0.53 -9.2,1.68 -2.7,1.13 -4.8,2.66 -6.1,4.45 -1.3,1.83 -2.1,4.26 -2.6,7.39 -0.4,2.17 -0.6,6.64 -0.6,13.33 v 31.17 h -8.7 v 15.1 h 8.7 v 14.23 l 19,11.05 v -25.28 h 12.9" />
        </g>
        <g
           transform="matrix(0.05041723,0,0,-0.05041723,-602.31444,330.26063)"
           id="g270">
          <path
             inkscape:connector-curvature="0"
             id="path272"
             style="fill:#120f0e;fill-opacity:1;fill-rule:nonzero;stroke:none"
             d="m 16233.5,1780.84 18.8,2.91 c 0.9,-3.67 2.5,-6.46 5,-8.35 2.4,-1.88 5.8,-2.84 10.3,-2.84 4.8,0 8.5,0.91 11,2.68 1.7,1.25 2.5,2.96 2.5,5.04 0,1.45 -0.5,2.6 -1.4,3.57 -1,0.88 -3,1.72 -6.3,2.46 -15.2,3.34 -24.8,6.41 -28.9,9.19 -5.7,3.83 -8.5,9.19 -8.5,16.03 0,6.18 2.5,11.35 7.4,15.57 4.8,4.18 12.4,6.31 22.6,6.31 9.8,0 17.1,-1.61 21.8,-4.75 4.7,-3.16 8,-7.92 9.8,-14.13 l -17.8,-3.23 c -0.8,2.75 -2.2,4.87 -4.4,6.33 -2.1,1.5 -5.1,2.22 -9,2.22 -5,0 -8.5,-0.66 -10.7,-2.07 -1.4,-0.97 -2.2,-2.28 -2.2,-3.82 0,-1.34 0.7,-2.49 2,-3.44 1.7,-1.22 7.5,-2.98 17.6,-5.33 10,-2.25 17,-5.03 21,-8.37 3.9,-3.35 5.9,-7.99 5.9,-14.02 0,-6.51 -2.7,-12.14 -8.3,-16.82 -5.3,-4.71 -13.5,-7.01 -24.1,-7.01 -9.7,0 -17.4,1.94 -23.1,5.88 -5.7,3.91 -9.4,9.27 -11,15.99" />
        </g>
      </g>
      <g
         transform="matrix(0.35277777,0,0,-0.35277777,-367.20285,345.0778)"
         id="g4744">
        <path
           inkscape:connector-curvature="0"
           id="path274"
           style="fill:#254aa5;fill-opacity:1;fill-rule:nonzero;stroke:none;stroke-width:0.1"
           d="m 723.00927,317.89801 h 235.8128 v 156.622 h -235.8128 v -156.622" />
        <path
           inkscape:connector-curvature="0"
           id="path276"
           style="fill:#fff200;fill-opacity:1;fill-rule:nonzero;stroke:none;stroke-width:0.1"
           d="m 839.79107,451.37201 h 6.846 l -5.517,-4.149 2.133,-6.562 -5.479,4.045 -5.488,-4.045 2.168,6.562 -5.56,4.149 h 6.816 l 2.064,6.407 2.017,-6.407" />
        <path
           inkscape:connector-curvature="0"
           id="path278"
           style="fill:#fff200;fill-opacity:1;fill-rule:nonzero;stroke:none;stroke-width:0.1"
           d="m 840.08607,345.34401 h 6.84 l -5.514,-4.141 2.139,-6.563 -5.483,4.054 -5.483,-4.054 2.169,6.563 -5.553,4.141 h 6.805 l 2.062,6.419 2.018,-6.419" />
        <path
           inkscape:connector-curvature="0"
           id="path280"
           style="fill:#fff200;fill-opacity:1;fill-rule:nonzero;stroke:none;stroke-width:0.1"
           d="m 866.25607,352.38001 h 6.837 l -5.506,-4.142 2.129,-6.566 -5.471,4.046 -5.5,-4.046 2.17,6.566 -5.556,4.142 h 6.807 l 2.079,6.412 2.011,-6.412" />
        <path
           inkscape:connector-curvature="0"
           id="path282"
           style="fill:#fff200;fill-opacity:1;fill-rule:nonzero;stroke:none;stroke-width:0.1"
           d="m 866.25607,444.39501 h 6.837 l -5.506,-4.142 2.129,-6.578 -5.471,4.05 -5.5,-4.05 2.17,6.578 -5.556,4.142 h 6.807 l 2.079,6.407 2.011,-6.407" />
        <path
           inkscape:connector-curvature="0"
           id="path284"
           style="fill:#fff200;fill-opacity:1;fill-rule:nonzero;stroke:none;stroke-width:0.1"
           d="m 885.66707,424.91301 h 6.833 l -5.503,-4.148 2.146,-6.581 -5.481,4.053 -5.498,-4.053 2.165,6.581 -5.549,4.148 h 6.81 l 2.072,6.409 2.005,-6.409" />
        <path
           inkscape:connector-curvature="0"
           id="path286"
           style="fill:#fff200;fill-opacity:1;fill-rule:nonzero;stroke:none;stroke-width:0.1"
           d="m 885.66707,371.59201 h 6.833 l -5.503,-4.139 2.146,-6.571 -5.481,4.046 -5.498,-4.046 2.165,6.571 -5.549,4.139 h 6.81 l 2.072,6.402 2.005,-6.402" />
        <path
           inkscape:connector-curvature="0"
           id="path288"
           style="fill:#fff200;fill-opacity:1;fill-rule:nonzero;stroke:none;stroke-width:0.1"
           d="m 892.95407,398.65701 h 6.849 l -5.515,-4.129 2.129,-6.587 -5.483,4.045 -5.487,-4.045 2.166,6.587 -5.557,4.129 h 6.829 l 2.049,6.404 2.02,-6.404" />
        <path
           inkscape:connector-curvature="0"
           id="path290"
           style="fill:#fff200;fill-opacity:1;fill-rule:nonzero;stroke:none;stroke-width:0.1"
           d="m 813.10407,444.33001 h 6.838 l -5.509,-4.157 2.148,-6.563 -5.488,4.043 -5.479,-4.043 2.164,6.563 -5.557,4.157 h 6.805 l 2.067,6.412 2.011,-6.412" />
        <path
           inkscape:connector-curvature="0"
           id="path292"
           style="fill:#fff200;fill-opacity:1;fill-rule:nonzero;stroke:none;stroke-width:0.1"
           d="m 794.24007,424.84301 h 6.824 l -5.512,-4.143 2.142,-6.585 -5.479,4.053 -5.482,-4.053 2.157,6.585 -5.555,4.143 h 6.81 l 2.07,6.409 2.025,-6.409" />
        <path
           inkscape:connector-curvature="0"
           id="path294"
           style="fill:#fff200;fill-opacity:1;fill-rule:nonzero;stroke:none;stroke-width:0.1"
           d="m 787.22307,398.59601 h 6.823 l -5.498,-4.15 2.133,-6.58 -5.478,4.057 -5.499,-4.057 2.169,6.58 -5.551,4.15 h 6.812 l 2.069,6.401 2.02,-6.401" />
        <path
           inkscape:connector-curvature="0"
           id="path296"
           style="fill:#fff200;fill-opacity:1;fill-rule:nonzero;stroke:none;stroke-width:0.1"
           d="m 794.24007,371.52401 h 6.824 l -5.512,-4.141 2.142,-6.574 -5.479,4.054 -5.482,-4.054 2.157,6.574 -5.555,4.141 h 6.81 l 2.07,6.415 2.025,-6.415" />
        <path
           inkscape:connector-curvature="0"
           id="path298"
           style="fill:#fff200;fill-opacity:1;fill-rule:nonzero;stroke:none;stroke-width:0.1"
           d="m 813.38107,352.31801 h 6.845 l -5.509,-4.145 2.133,-6.584 -5.489,4.062 -5.482,-4.062 2.166,6.584 -5.565,4.145 h 6.817 l 2.064,6.404 2.02,-6.404" />
        <g
           id="g300"
           transform="translate(666.45807,33.759009)">
          <text
             id="text304"
             style="font-variant:normal;font-weight:normal;font-size:27.97389984px;font-family:MyriadPro;-inkscape-font-specification:MyriadPro-Regular;writing-mode:lr-tb;fill:#231f20;fill-opacity:1;fill-rule:nonzero;stroke:none"
             transform="matrix(1,0,0,-1,65.2574,242.928)">
            <tspan
               id="tspan302"
               sodipodi:role="line"
               y="0"
               x="0 13.763159 31.862272 46.99453 66.268547 81.150665 94.913818 112.03384 130.44067 136.37114 154.47026 172.87708 179.56284 198.83685">EUROPEAN UNION</tspan>
          </text>
        </g>
      </g>
      <g
         transform="matrix(0.35277777,0,0,-0.35277777,-366.62986,331.62363)"
         id="g4692">
        <g
           id="g18"
           transform="matrix(0.60371914,0,0,0.60371914,477.87926,120.81493)">
          <text
             id="text22"
             style="font-variant:normal;font-size:39.5951004px;font-family:MyriadPro;-inkscape-font-specification:MyriadPro-It;writing-mode:lr-tb;fill:#4f4c4c;fill-opacity:1;fill-rule:nonzero;stroke:none"
             transform="matrix(1,0,0,-1,833.264,197.673)">
            <tspan
               id="tspan20"
               sodipodi:role="line"
               y="0"
               x="0 20.906435 40.782597 71.983444 92.097145 109.24134 120.84232 129.11722 140.71811 148.993 165.89989 183.04408 203.39578 220.54007 234.51646 248.49306 254.90707 280.80212 300.91589 318.06012 329.26532 349.14157 360.74237 369.01736 388.89352 409.24539 429.12155 437.39645 443.81058 462.65784 474.21948 494.21411 514.16949 525.37476 545.25092 576.45178 607.65265 624.79681 631.21082 641.34723 661.54071 687.19843 706.16406">Competitiveness Operational Programme (COP)</tspan>
          </text>
        </g>
        <g
           id="g306"
           transform="scale(0.1)">
          <g
             clip-path="url(#clipPath312)"
             id="g308">
            <path
               inkscape:connector-curvature="0"
               id="path314"
               style="fill:#ffffff;fill-opacity:1;fill-rule:evenodd;stroke:none"
               d="m 12662,4005.19 c 247.6,-370.25 147.7,-874.22 -222.6,-1121.9 -370.3,-247.65 -874.3,-147.71 -1121.9,222.56 -247.7,370.29 -147.7,874.26 222.5,1121.92 370.3,247.67 874.3,147.68 1122,-222.58" />
            <path
               inkscape:connector-curvature="0"
               id="path316"
               style="fill:#254993;fill-opacity:1;fill-rule:evenodd;stroke:none"
               d="m 12647.9,3991.51 c 241.8,-361.53 144.1,-853.62 -217.4,-1095.46 -361.5,-241.8 -853.6,-144.17 -1095.4,217.33 -241.8,361.58 -144.2,853.66 217.3,1095.45 361.5,241.83 853.6,144.19 1095.5,-217.32" />
            <path
               inkscape:connector-curvature="0"
               id="path318"
               style="fill:#ffffff;fill-opacity:1;fill-rule:evenodd;stroke:none"
               d="m 12405.5,2934.02 c -343.2,-229.58 -807.8,-137.45 -1037.3,205.76 -229.6,343.25 -137.5,807.71 205.7,1037.3 343.2,229.55 807.8,137.37 1037.4,-205.82 229.5,-343.21 137.4,-807.73 -205.8,-1037.24 m 223.1,1048.85 c -235.4,351.85 -714.4,446.88 -1066.2,211.51 -351.9,-235.36 -446.9,-714.3 -211.5,-1066.2 235.3,-351.84 714.3,-446.91 1066.1,-211.51 351.9,235.37 447,714.33 211.6,1066.2" />
            <path
               inkscape:connector-curvature="0"
               id="path320"
               style="fill:#ffffff;fill-opacity:1;fill-rule:evenodd;stroke:none"
               d="m 12247.5,3170.11 c -212.8,-142.38 -500.9,-85.24 -643.3,127.63 -142.3,212.79 -85.2,500.87 127.7,643.23 212.8,142.35 500.9,85.22 643.3,-127.63 142.3,-212.83 85.2,-500.86 -127.7,-643.23 m 145.4,655.12 c -148.9,222.67 -450.3,282.43 -672.9,133.51 -222.7,-148.92 -282.4,-450.25 -133.5,-672.91 148.9,-222.65 450.3,-282.45 672.9,-133.48 222.7,148.92 282.5,450.24 133.5,672.88" />
            <path
               inkscape:connector-curvature="0"
               id="path322"
               style="fill:#ffffff;fill-opacity:1;fill-rule:evenodd;stroke:none"
               d="m 11384.2,3597.18 c 16.3,0 29.5,-13.26 29.5,-29.59 0,-16.35 -13.2,-29.59 -29.5,-29.59 -16.4,0 -29.7,13.24 -29.7,29.59 0,16.33 13.3,29.59 29.7,29.59" />
            <path
               inkscape:connector-curvature="0"
               id="path324"
               style="fill:#ffffff;fill-opacity:1;fill-rule:evenodd;stroke:none"
               d="m 12592.1,3597.18 c 16.3,0 29.6,-13.26 29.6,-29.59 0,-16.35 -13.3,-29.59 -29.6,-29.59 -16.4,0 -29.6,13.24 -29.6,29.59 0,16.33 13.2,29.59 29.6,29.59" />
            <path
               inkscape:connector-curvature="0"
               id="path326"
               style="fill:#ffffff;fill-opacity:1;fill-rule:evenodd;stroke:none"
               d="m 12050.6,3576.29 -1.4,-0.79 0.6,-1.59 -2,0.12 -0.6,-1.99 -2,0.91 -1.9,-1.39 -1.5,1.26 -2,-0.9 -0.5,1.77 -2.1,-0.08 0.2,1.71 -1.9,0.36 0.4,1.78 -1.8,1.17 1.6,1.08 -0.8,1.69 1.7,0.98 v 1.74 l 1.9,0.21 0.6,1.69 2,-0.68 1.3,1.45 1.4,-1.45 2,0.68 0.6,-1.69 1.8,-0.07 0.1,-1.79 2.1,-0.56 -0.4,-1.82 1.6,-1.15 -1.5,-1.22 z m 49.8,-0.97 c 0.5,-5.61 -13.4,-6.07 -14.1,3.37 0.4,9.66 14,9.77 14,4.39 -4.2,0.65 -6.4,-1.15 -6.4,-4.39 0.2,-2.47 2.3,-4.15 6.5,-3.37 m -256,16.21 h 144.4 l 0.3,0.45 -0.3,134.78 h 147.3 l 0.1,-135.01 -142.3,-0.14 v -0.08 c 7.9,-27.65 15.3,-50.76 22.6,-70.27 h 46.6 v 7.46 c -2.3,-3.24 -5.8,-2.66 -7.6,0.87 -2.8,-2.77 -5.8,-2.08 -7,1.42 -2.7,-2.75 -6.4,-2.29 -7.5,1.91 -1.5,-4.66 -3.7,-7.57 -9.6,-7.33 -5.4,-1.57 -7.1,-1.41 -8.4,-0.11 -4.5,-1.57 -5.7,-1.57 -7.3,-0.74 l 10.5,34.55 c 1.8,6.39 6,9.48 14.4,8.03 7.5,-1.28 7.3,-8.75 5.6,-13.77 5.6,-0.96 9.3,-1.23 15.4,-1.44 0.3,0 0.5,0.02 0.7,0.02 -0.3,0.16 -0.6,0.19 -0.9,0.19 2.6,2.16 3,3.26 4.3,5.65 h -2.7 c 2.8,2.31 3.4,3.17 4.5,5.51 -2.2,-1.48 -8.8,-5.53 -11.4,-1.34 0.2,0.61 7.3,1.18 7.8,2.76 -0.2,0.27 -0.1,0.48 -0.2,0.87 -3.4,1.04 -5.7,0.44 -8.3,-0.53 -1,3.94 1.3,5.66 8.9,5.53 v 0.04 c 16,4.77 12.3,-0.84 17.3,-8.76 -1.1,0 -2.2,0.25 -3.1,0.25 1.3,-2.4 1.7,-3.24 3.5,-5.28 -1.4,0.36 -2.3,0.59 -3.3,0.59 1,-2.41 1.5,-3.13 2.9,-5.02 -0.3,0 -0.6,-0.07 -0.9,-0.27 0.3,0 0.5,-0.03 0.7,-0.09 4.4,0.97 7.1,1.45 9.9,2.49 -2.2,4.93 -2.6,10.96 5.5,13.1 5.9,1.3 10.4,-1.33 12.4,-5.16 l 18.9,-37.31 c -0.7,-1.44 -2.4,-1.44 -8.3,0.13 -2,-1.08 -3.1,-1.21 -7.7,0.58 -4.2,-0.71 -6.6,0 -10.1,7.43 -0.6,-3.72 -3,-4.53 -6.5,-1.64 -0.9,-3.96 -3.9,-4.66 -6.6,-1.2 -0.7,-3.73 -3.5,-4.59 -6.7,-1.93 l 0.8,-7.52 53,-0.06 v -10.79 h 0.2 v -26.49 c -0.5,-30.76 -46.8,-44.23 -71.4,-53.75 -26.6,27.14 -49.6,68.51 -75.8,160.72 -8.8,-30.59 -17,-55.56 -25,-76.28 l -6.5,-0.62 v 6.61 h -4.2 c 2.6,5.66 2,8.03 3,12.6 0.6,2.97 3.4,2.63 3.6,0.73 2.3,2.69 -1.1,6.11 -4.4,3.05 -1.1,2.33 -1.3,2.92 -0.3,5.06 1.3,1.21 4.1,1.08 4.2,-1.29 3,1.92 -1.2,9.79 -6.7,3.37 -1,1.4 -1.5,2.48 -1.5,3.82 1.9,2.15 3.6,1.79 3.8,-0.22 3.1,2.37 -1.9,7.39 -5.6,3.34 -3.3,5.98 -5.9,20.49 2.7,22.39 4.9,1.09 7.7,-0.84 10.1,-4.17 0.3,-1.33 1.7,-3.84 -0.9,-4.81 0.5,-0.93 1.2,-1.45 2.3,-1.8 -3.7,-2.5 1.9,-8.64 1.9,-11.61 1.2,1.68 1.7,2.76 1.2,4.45 0.7,-0.76 0.6,-1.19 1,-2.2 1.5,2.2 0.1,3.73 -0.4,5.21 0.9,-0.76 1.1,-1.23 1.7,-2.11 0.9,4.36 0.4,4.95 -0.8,6.4 1.3,0.21 1.4,1.09 2.2,2.15 -4.1,0.34 -6.2,9.13 -11.6,11.14 -15,4.58 -19,-9.59 -14.8,-22.07 1.7,-5.23 5.5,-13.52 7,-18.7 1,-3.33 0.8,-7.79 -2.1,-14.73 h -0.1 -4.7 v -6.61 h -6.6 c -10.2,9 -13.4,17.86 -19.7,24.71 2.2,-1.33 5,-3.37 8.8,-3.62 -1.5,2.29 -3.1,3.28 -3.1,6.03 3.2,-3.49 8,-3.39 10.7,-2.66 -3.5,2.77 -5.8,4.57 -5.9,10.81 2.9,-2.41 4,-3.74 5.9,-5.78 3,5.62 1.3,8.63 -1.5,12.48 2.6,-1.77 2.1,-0.71 4.8,-1.3 -1,2.49 -0.4,2.78 -2.8,5.03 2.3,-0.96 1.4,-0.13 3.4,-0.13 -0.9,1.8 -0.3,2.89 -3.3,4.7 2.1,0 2.1,1.04 3,2.01 -7.1,2.18 -2.8,4.81 -10.6,7.46 2.3,3.58 -3,5.95 -4.8,2.37 -1.4,0.64 -1.4,0.97 -2.7,1.36 0.6,4.98 -6,4.53 -5.1,0 -3.8,-1.11 -5,-1.36 -7.7,-2.81 -0.3,-0.83 -0.3,-1.54 -0.3,-2.76 -3.2,-1.65 -4.4,-2.27 -8.1,-3.44 -1.6,0 -1.9,-1.31 -0.2,-1.31 0,-0.87 0.5,-4.12 0.9,-5.55 0.1,-1.07 0.7,-0.82 0.9,-0.1 0,0.37 2.7,2.41 3.6,2.52 0.1,1.22 0.7,1.22 0.8,0 0.8,-0.27 1.6,-1.2 1.3,-4.32 -11.4,1.08 -13,1.08 -13.9,3.12 -0.4,2.63 -2.3,2.15 -0.9,-0.72 0.5,-1.32 0.9,-2.53 14.3,-3.49 -1.1,-1.06 -2.4,-1.31 -5.1,-1.56 0,1.22 -0.7,1.22 -0.8,0 -0.1,0 -0.4,-0.5 -0.4,-1.33 -0.7,-0.6 -0.9,-1.32 -0.9,-1.32 -2.7,0.36 -4.5,1.83 -9,1.32 -4.8,6.49 -11.5,2.89 -18,13.91 l -0.2,-0.08 v 0.04 l 2,0.93 2.4,-4.24 2.4,1.21 -2.4,4.22 c 8.8,3.68 14.5,5.49 25.1,5.83 3.3,3.37 5.2,4.8 8.4,8.37 -14.6,1 -23,-3.71 -34.9,-11.45 l -0.1,-0.09 -2.7,4.64 -2.3,-1.22 1.4,-2.57 c -1.2,1.49 -3.4,2.73 -5.7,1.53 -3,0 -4.3,-0.39 -5.3,-2.56 -3.4,-0.36 -3.5,-6.59 -0.9,-7.67 l 0.2,0.11 v -0.11 l -1.4,-0.68 1.4,-2.29 3.3,1.59 c 0,-1.5 0.4,-2.22 1.6,-3.16 0.6,0.6 1.3,1.05 2.2,1.77 0.2,-2.25 0.5,-3.84 1.6,-6.2 0.7,0.72 1.3,1.19 1.9,1.79 0.2,-2.92 0.3,-3.82 1,-6.14 0.9,0.84 1.8,1.69 2.6,2.32 -0.4,-3.02 -0.4,-4.97 1.2,-6.41 0.6,1.12 0.7,1.85 1,3.01 1.4,-1.28 2.8,-3.01 5.3,-4.05 0.2,-0.46 1,-1.36 1.4,-1.82 -1.5,-1.4 -2.5,-1.79 -4.6,-2.01 2.2,-1.7 3.4,-1.7 6.2,-0.87 -1.2,-1.32 -1.8,-2.61 -3.4,-3.32 2.1,-0.41 3.2,-0.41 5.2,-0.41 -5.1,-0.09 -7.9,-0.93 -13.1,-4.91 0.6,2.17 1.8,4.82 -0.3,4.21 -1.1,-0.34 -2,-0.23 -3,0.7 -1.2,0 -1.1,-1.53 -1.1,-3.18 -0.1,2.48 -0.7,4.77 -2.5,4.06 -0.5,-1.2 -1.3,-1.81 -3.5,-1.58 -0.4,-0.43 0,-1.21 0.5,-1.85 0.4,-0.27 0.8,-0.63 1.1,-0.98 0,0 -0.5,0.41 -1.1,0.98 -0.9,0.81 -1.8,1.17 -2.6,0.18 0.3,-1.66 0,-2.18 -0.8,-3.1 0.5,-1.44 0.6,-1.1 3.6,-1.2 -2.5,0 -3.1,-0.35 -3.9,-1.57 1.3,-1.08 1.6,-2.4 1.5,-3.85 2,-1.17 6.3,1.09 8,2.77 0.4,-0.84 0.4,-1.84 0,-2.88 3.6,0.88 6.2,2.62 7,3.7 0.4,-1.08 -0.4,-1.78 -0.2,-3.47 2,0.65 3.3,0.97 4.6,2.56 -0.4,-1.23 -0.5,-1.75 -0.8,-3.13 2.6,0.7 3.4,0.82 5,3.13 -0.3,-1.59 -0.2,-1.59 0,-2.79 3,1.45 3.6,1.35 5.4,3.7 -0.5,-2.01 -0.4,-2.14 -0.2,-3.59 2.7,1.45 3.6,2.15 4.6,4.46 0.4,-0.87 0.2,-1.69 0.6,-3.12 1.6,0.95 2.6,1.88 3.8,3.73 0.4,-0.85 -0.6,-1.94 -0.6,-3.01 2.2,0.45 3.3,1.07 4.4,2.63 2.4,-8.49 13.8,-8.49 15.5,-13.43 v -4.68 h -13.9 v 6.48 h -14.3 v -6.61 h -13.9 v 6.61 h -14.9 v -6.61 h -15.7 z m 9.5,24.47 v 67.21 c 0,10.34 8.2,20.19 19.8,17.77 9.5,-2.01 13.8,-6.57 9.5,-15.73 5.9,-3.55 10,-5.13 18.5,-6.57 1.2,2.29 3.2,5.29 5,7.54 -1.1,-0.24 -1.7,-0.24 -2.9,-0.43 2.7,2.48 5.9,3.33 6.5,5.85 0.4,1.53 -1.3,4.45 -2.7,5.36 -1.2,-0.19 -2.5,-0.13 -3.7,-0.13 v -5.95 h -3.7 v 5.7 0.04 1.68 c -0.9,-0.62 -1.7,-1.43 -2.1,-2.55 -2.8,4.45 -0.8,6.95 2.3,8.3 -0.2,2.95 0,5 -0.2,7.82 -1.3,0 -3.2,-0.25 -5.2,-0.61 0,1.33 -0.1,2.86 -0.1,4.18 2.4,-0.37 2.9,-0.45 5.3,-0.37 0,1.71 -0.6,3.97 -0.8,5.66 1.8,-0.24 3.5,-0.15 5.4,0 -0.3,-1.8 -0.9,-3.61 -0.9,-5.66 2.5,-0.08 3.4,0.15 5.4,0.49 0,-1.65 0.2,-2.76 0,-3.94 -1.4,0.25 -3.9,0.25 -5.4,0.36 0,-1.8 0.1,-5.4 0.1,-6.97 0.7,0.15 1.5,0.21 2,0.25 h 0.1 v 0.02 0 c 2,4.3 9.6,5.51 14.3,4.41 6.5,-1.44 5.9,-9.02 11.6,-12.2 -1.9,-0.48 -2.1,-0.98 -3.3,-0.27 0.6,-3.22 2.2,-3.94 3.1,-6.59 -1.5,0.37 -1.7,0.37 -2.8,0.51 1.4,-2.06 2.8,-4.56 3.3,-6.49 -1.6,0.13 -1.9,0.34 -3.1,0.34 1.1,-1.9 2.4,-4.91 2.7,-6.67 8.4,0.48 12.4,1.29 17.3,4.27 -3.2,8.76 -3.8,14.07 7.9,17.78 8.7,1.54 20.7,-0.49 20.7,-19.28 v -63.46 c 0.1,-5.16 0.7,-7.54 3.6,-10.42 -4.3,0.95 -7.6,2.61 -11.9,10.55 -2.6,0.25 -5.2,1.78 -9,8.75 -7.7,2.41 -8.3,2.65 -8.3,27.2 -0.8,-2.16 -1.6,-2.16 -4.1,-3.12 -2.8,0.5 -3.8,1.93 -4.8,3.45 -0.7,-1.79 -1.3,-2.62 -3.5,-2.81 -1.1,0.57 -1.8,0.91 -3.1,2.37 2.3,-3.84 7.7,-12.37 11.4,-17.98 -2.5,0.68 -3.2,0.8 -5.7,1.5 4.3,-7.75 5.1,-9.34 10.7,-18.22 0.4,-0.83 0.7,-0.57 1.6,-0.57 3.2,-0.26 4,1.65 5.9,-0.15 0,-0.06 0,-0.11 0,-0.21 0,0.06 0,0.06 0,0.1 1.9,0.62 4.2,-0.36 3.6,-3.59 -0.7,1 -1.3,1.63 -2.9,1.36 0,0 -0.1,-0.25 -0.1,-0.39 -2.8,-0.97 -2.4,0.84 -5.6,0.12 2.3,-2.77 4.8,-2.06 5.3,-4.93 -0.1,-0.3 -0.2,-0.59 -0.4,-0.7 l 0.1,-0.53 c 1.4,-1.4 0.9,-3.32 -0.3,-4.89 -0.7,3.67 -1.9,2.9 -2.1,3.74 l -0.3,0.13 c -0.2,-0.13 -0.6,-0.2 -1,-0.04 -4,3.01 -1.3,3.84 -3.1,6.25 -0.6,0.25 -0.7,0.36 -1.1,-0.12 -1.2,-4.09 1.8,-4.54 -1.4,-7.42 -0.4,-0.09 -0.7,-0.05 -1,0 0.6,-1.43 -2,0 -2.2,-3.64 -2.9,2.07 -2.2,3.84 -0.8,4.32 v 0.15 c -0.2,0.25 -0.7,0.08 -0.9,0.37 0.3,1.78 3,3.37 4.3,6.22 0,0.48 0,0.48 -0.7,0.73 -3.7,-1.22 -1.7,-2.54 -5.9,-3.02 -0.3,0.16 -0.4,0.31 -0.5,0.46 -0.5,-1.12 -2.2,0.09 -2.3,-2.71 -2,1.51 -1,4.86 1.1,4.77 0.2,0 -0.5,0.4 0.1,0.99 1,1.28 2.8,0.19 5.8,1.78 0.6,0.23 0.3,0.59 0.3,0.7 -3.3,4.64 -8.9,11.06 -11.4,16.01 -0.3,-2.65 -0.9,-5.16 -2.1,-6.14 -2.7,5.3 -3.8,7.09 -7.5,12.84 -0.6,-0.94 -0.4,-0.6 -1.3,-1.3 -0.8,0.09 -1.5,0.81 -2.1,1.06 2.9,-14.27 4.2,-17.39 11.5,-29.12 -1.7,-1.44 -7.1,-3 -9.3,-4.32 0.8,-1.81 1.8,-2.87 2.9,-4.59 -4.3,-2.51 -6.6,-3.59 -13,-5.84 -6,2 -8.1,2.97 -14.2,5.84 1.1,1.83 2,3.63 2.8,5.32 -4.3,2.15 -6.5,3.08 -11.4,5.25 10.9,14.14 12,15.84 16.1,27.36 -0.7,-0.26 -1.1,-0.51 -2.1,-0.96 -0.2,0.45 -1.1,1.77 -1.4,2.28 -3.2,-5.77 -3.9,-5.88 -7.9,-10.43 -1.1,1.32 -1.4,1.8 -1.5,3.37 -1,-1.02 -6,-5.68 -15.1,-14.83 0,0 -0.2,-0.44 0.4,-0.68 2.9,-1.59 4.9,-0.5 5.9,-1.67 0.1,-0.43 0.1,-0.68 0.1,-0.79 -0.2,0 -0.3,-0.04 -0.5,-0.08 1.9,-0.87 3.2,-3.5 1.6,-4.81 -0.1,2.76 -1.8,1.56 -2.3,2.62 v 0.03 c -0.1,-0.12 -0.2,-0.23 -0.5,-0.36 -1.4,0.13 -6.8,3.92 -6.8,2.18 1.4,-2.77 4.1,-4.32 4.3,-6.03 -0.2,-0.3 -1.6,0 -0.8,-0.45 0.8,-0.51 2.1,-2.31 -0.8,-4.24 -0.2,3.06 -2.1,2.44 -2.3,3.1 -0.1,0.2 -0.2,-0.09 -0.4,0.06 -2.4,0.48 -0.7,3.58 -1.9,7.56 -0.4,0.43 -0.5,0.34 -1.1,0.11 -2,-2.29 0.8,-3.13 -3.2,-5.98 -0.6,-0.19 -0.9,-0.16 -1.3,0.04 -0.1,-1.11 -1.4,0 -2.1,-3.8 -1.4,1.67 -1.9,3.46 -0.2,4.89 0.4,0.4 -0.3,0.22 -0.4,0.99 0.4,2.78 3,2.04 5.2,4.81 -3.1,0.59 -2.7,-0.84 -5.4,0.15 v 0 c -1.8,0.34 -2.4,-0.15 -3.2,-1.21 -0.7,3.09 1.7,4.05 3.6,3.45 v -0.06 0.1 c 1.9,1.91 2.7,0 6,0.2 1,0 1.1,-0.13 1.7,0.59 2.5,2.54 12.6,14.51 15,17.35 -1.9,-0.76 -3.1,-0.51 -5.3,0.08 2.3,3.23 5.9,10.53 8.9,16.31 0,0.13 -1.1,-2.19 -2.8,-2.77 -2,0.58 -2.6,1.22 -3.5,3.01 -1.4,-2.16 -2.2,-2.04 -4.2,-3.45 -2.1,0.73 -3.2,1.29 -4.5,3.21 -1,-9.73 -2.1,-18.7 -8.4,-22.55 -1.5,-5.51 -3.4,-8.39 -9.8,-11.15 -1.3,-4.9 -5,-9.83 -11.2,-11.98 1.2,2.62 1.9,4.34 2.5,7.2 m 14.3,102 1.9,1.2 v 2.05 l 2,0.24 0.6,2.05 2.4,-0.87 1.4,1.72 1.5,-1.72 2.3,0.87 0.5,-2.05 2,-0.15 0.2,-2.01 2.3,-0.72 -0.5,-2.14 1.7,-1.36 -1.6,-1.44 0.6,-1.65 -1.6,-0.97 0.6,-1.89 -2.2,0.09 -0.6,-2.29 -2.2,1.1 -2.1,-1.67 -1.6,1.58 -2.2,-1.12 -0.6,2.04 -2.2,-0.11 0.3,2.05 -2.3,0.47 0.5,2.04 -1.9,1.45 1.7,1.17 z m 69,1.8 c 0,4.59 17.6,6.5 18.1,-5.26 -0.8,-11.38 -18.2,-9.74 -18.2,-4.32 5.5,-2.97 9.3,1.08 9.4,4.32 -0.1,3.22 -4.5,7.09 -9.3,5.26 m 107.7,-290.29 c -4.4,-0.5 -12.7,-1.18 -17.3,3.47 -6.1,-5.33 -13.5,-7.23 -19.8,-5.53 l -0.3,-0.07 c -4.2,-3.58 -9.3,-1.88 -4,1.63 -4.5,0.84 -10.5,2.67 -10.5,7.45 0.8,1.63 2.6,1.86 4.2,0.11 l 0.3,0.09 c 2.4,1.59 1.6,0.7 3,3.04 -8.2,8.58 12.9,16.32 7.9,20.05 -2.5,1.88 -4.5,-0.66 -5.9,-2.62 -2.3,4.05 1,7.83 7.4,7.83 -2.3,4.74 -6.2,13.11 -10.3,17.88 -3.5,4.21 -6.5,12.59 -4.7,23.21 4,17.77 0.4,14.62 -0.7,19.81 -1.4,6.29 0.4,8.89 5.8,11.61 -3.5,-5.98 10.2,-9.62 4.8,-18.88 15.9,-2.68 5.4,-15.78 9.9,-22.73 -11.6,4.21 -4.7,13.01 -11.8,13.24 -4,0.07 11.9,-22.21 12,-23.76 0.6,0.93 1.2,1.2 2.9,1.4 1,1.01 1.9,1.38 3.3,1.38 -0.4,-5.16 -0.4,-5.94 -0.1,-10.66 4.5,-5.83 8.4,-11.16 10.2,-14.88 2.8,-5.84 3,-15.94 -1.1,-24.83 4.5,2.61 7,2.81 10.3,5.1 0.6,-1.53 0.9,-3.02 0.5,-4.33 2,-0.2 3.1,0 6,-2.37 -2.5,-0.57 -5,-1.32 -6.1,-3.06 1.6,0 3.8,-1.72 4.1,-3.58 m -67.3,-0.5 c 4.5,-3.17 0.1,-4.91 -4.1,-1.63 l 0.1,0.05 -0.4,0.12 c -6.6,-1.75 -14.4,0.1 -20.8,5.43 -5.9,-5.6 -13.4,-4.87 -19.1,-5.22 0.4,2.29 2.4,3.92 5.1,4.36 -1.4,2.59 -3.2,3.05 -5.7,3.58 2.2,1.71 3.8,1.66 6.4,2.62 -0.3,1.29 -0.6,3 0,4.53 3.5,-2.29 6.1,-2.49 10.7,-5.1 -4.3,8.89 -4,18.99 -1.1,24.83 2,4.17 7.1,10.53 12.5,17.19 l -1.9,-2.34 c 0.5,4.75 0.5,5.51 -0.2,10.69 1.6,0 2.5,-0.37 3.6,-1.38 1.7,-0.2 2.3,-0.47 3.1,-1.4 10,12.29 19.2,23.93 12.4,23.76 -7.4,-0.23 -0.1,-9.03 -12.3,-13.24 4.7,6.95 -6.3,20.05 10.3,22.73 -5.6,9.26 8.6,12.9 4.9,18.88 5.7,-2.72 7.5,-5.32 6,-11.61 -1.2,-5.19 -4.9,-2.04 -0.7,-19.81 1.9,-10.62 -1.2,-19 -4.9,-23.21 -4.2,-4.77 -8.2,-13.14 -10.5,-17.88 6.7,0 10,-3.78 7.7,-7.83 -1.6,1.96 -3.6,4.5 -6.2,2.62 -5.2,-3.73 16.6,-11.47 8.1,-20.05 1.5,-2.34 0.7,-1.45 3.2,-3.04 l 0.3,-0.09 c 1.7,1.75 3.5,1.63 4.5,-0.11 0,-4.78 -6.5,-6.61 -11,-7.45 m -60.9,30.63 v 0 22.54 l 5,6.34 8.7,3.85 8.7,-3.45 5,-6.74 1.9,-7.64 c -3.5,-6.61 -7.1,-12.65 -10.6,-18.12 -2.1,0.74 -4.3,1.89 -5.4,3.08 -3.1,-4.41 -9.5,-3.48 -13.3,0.14 m -28,-0.5 h -0.1 c -5.1,-2.6 -11,-2.26 -14.3,2.54 -4.4,-4.91 -9.6,-4.91 -14.2,-2.18 h -0.1 v 22.92 l 6.2,7.58 8.6,2.26 9.1,-3.17 4.8,-7.02 z m -19.3,-20.23 c 40.1,-12.91 79.8,-26.57 119.6,-40.05 44.6,13.38 147.9,39.82 154.3,76.4 v 0.12 c 0.4,2.17 0.7,6.92 0.6,9.14 l -0.2,251.5 h -307.4 v -261.73 c 0,-0.58 0.1,-1.11 0.1,-1.63 1.7,-17.27 17.7,-26.87 33,-33.75" />
            <path
               inkscape:connector-curvature="0"
               id="path328"
               style="fill:#ffffff;fill-opacity:1;fill-rule:evenodd;stroke:none"
               d="m 12046,3490.57 h 3.4 v -4.78 h 6.3 v 8.35 h -3 v 4.22 h 3 v 6.6 h -3 v -3.6 h -3.3 v 3.6 h -3.4 v -3.6 h -3.4 v 3.6 h -3.4 v -6.6 h 3.4 v -4.22 h -3.4 v -8.35 h 6.8 v 4.78" />
            <path
               inkscape:connector-curvature="0"
               id="path330"
               style="fill:#ffffff;fill-opacity:1;fill-rule:evenodd;stroke:none"
               d="m 12151.7,3475.36 c 1.4,-38.76 -58.1,-48.74 -162.7,-87.5 -99.5,33.91 -158.7,42.25 -160.5,79.45 v 275.73 l 323.2,0.14 z m -236.1,427.27 v 6.88 c 12.9,0.15 27.3,-4.68 35,-6.21 l 4.2,-10.06 c -10.6,4.09 -27.4,9.45 -39.2,9.39 m 58.6,30.69 c 0,-0.12 0,-0.27 0.1,-0.46 1.4,-5.73 -2.2,-11.47 -8,-12.82 -5.9,-1.38 -11.7,2.14 -13.2,7.86 0,0.15 0,0.3 0,0.49 z m 138.2,-550.71 c 0.2,-0.5 0.3,-0.79 0.2,-0.84 l -0.3,0.87 z m 0.5,-0.16 c 0.2,-0.57 0.4,-1.08 0.6,-1.61 -0.3,0.59 -0.6,1.11 -0.8,1.68 0,0 0.2,-0.03 0.2,-0.07 m 173.7,238.18 c 1.4,0 9.4,-4.86 10.9,-4.86 -9.6,29.14 -7.4,69.94 -6.7,115.59 3,-1.27 9,-6.13 12,-7.48 -2.3,25.87 -1.7,31.73 -1.7,46.39 0,90.48 -47.2,114.71 -84.1,124.71 -65.9,15.04 -111.7,-37.05 -95.9,-92.28 -3.8,-17.29 -13.4,-30.37 -29.6,-37.68 -13.2,-4.63 -31.9,-5.79 -39.7,9.36 3.5,-2.2 6,-3.34 10.4,-3.47 -4,4.19 -6.2,10.27 -8.1,17.24 v 0 c -3.1,11.81 -5.2,26.25 -12.5,38.91 7.3,-6.41 9.9,-12.9 12.5,-18.83 3.7,17 -1.5,37.79 -9.3,47.15 6.5,-3.23 6.6,-2.49 11.3,-7.34 1,9.48 -0.4,13.45 -3.3,19.47 -0.2,13.45 -1.6,17.81 -8,25.73 6.6,-2.82 11.3,-2.43 17.2,0.9 -8.8,3.08 -14.7,8.23 -21,17.66 -8,12.05 -20.7,26.52 -36.6,31.5 -12.7,4.09 -23.8,3.49 -46,-0.51 -6.2,-0.78 -21.3,-5.97 -35,-5.27 l 1.2,-7.33 -7.2,-1.85 c -0.6,-0.15 -1.3,-0.34 -2,-0.51 v 7.08 l 0.1,0.08 v 1.08 l -0.1,2.57 v 12.13 c 9.6,-0.2 18.1,-1.03 27.6,-2.18 l -0.5,18.73 c -9.6,-1.44 -18.9,-2.18 -28.7,-2.86 1,9.04 2,17.48 3.6,26.35 -6.4,-0.4 -12.6,-0.46 -18.9,-0.04 1.6,-8.89 2.5,-17.03 3.3,-26.16 -9.2,0.61 -17.9,1.18 -27.1,2.39 l 0.6,-17.92 c 3.9,0.47 20.8,0.91 26.6,1.06 v -25.42 c -9.6,-3.3 -18,-10.27 -10.1,-28.76 2.6,6.41 4.8,10.43 10.3,12.32 0,-29.44 2.3,-61.72 -5.2,-89.96 10.3,3.62 13.9,3.7 24.5,0.31 -7,24.75 -6.6,51.35 -5.8,76.88 1,-0.09 2,-0.24 3,-0.38 15.1,-1.97 30.7,-7.8 35,-24.9 4,-15.92 -8.4,-24.46 -15.2,-37 -13,-26.07 -8.2,-47.54 -20.3,-60.27 4,-0.38 8.5,0.26 8.5,0.26 -9.6,-13.11 -27.9,-13.11 -41.7,-8.98 -11.2,3.98 -22.4,17.58 -27.4,33.13 20.8,66.83 -48.5,109.2 -98.4,94.56 -26.6,-7.86 -78.2,-24.77 -80.3,-126.15 -1.4,-14.91 1,-23.76 -3,-38.91 4.7,1.42 6.5,2.2 10.6,4.26 0,-41.95 -0.1,-98.31 -8.6,-117.06 4.6,1.18 8.3,3.48 10.8,5.68 3.5,-173.89 5.7,-301.43 -6.8,-331.73 19,6.15 27.4,8.7 38.2,21.95 5.2,0.73 10.2,1.45 14.7,2.66 v 213.43 c -8.3,31.49 -16.3,63.01 -23.7,94.6 -2.9,12.26 -3.4,20.44 0.1,32.68 l 3.5,12.63 10.2,-8.63 c 4,-3.43 7.2,-6.71 9.9,-10.29 v 132.4 c 0,2.62 2.1,4.82 4.7,4.82 2.6,0 4.7,-2.2 4.7,-4.82 V 3628.2 c 21.5,-61.94 37.8,-125.6 54.4,-189.09 v 367.41 c 0,2.68 2.1,4.77 4.7,4.77 2.6,0 4.8,-2.09 4.8,-4.77 v -403.33 c 1,-4.05 2.1,-8.05 3.2,-12.06 9.1,12.31 14.9,25.61 18.1,45.31 6,-8.28 16.3,-14.99 30.6,-21.37 -11.6,-20.23 -13.4,-26.24 -32.4,-36.17 13.7,-5.89 27.6,-6.95 39.7,0.67 -0.2,-0.76 -0.5,-1.44 -0.7,-2.16 -3.8,-6.89 -6.5,-13.11 -9.8,-18.84 -4.2,-7.27 -7.6,-10.08 -12.6,-16.16 -10.3,-3.37 -15.2,1.79 -26.5,-0.8 -0.2,-0.09 -0.4,-0.15 -0.6,-0.29 -0.7,2.06 -1.3,3.93 -1,4.08 1.5,0.49 2.6,1.15 3.2,2.53 1.4,-0.11 3.7,1.29 4.5,2.45 2.1,-0.25 3.5,0.74 4.1,2.31 l 16.1,4.75 c 1.8,-0.9 4.2,-1.66 5,-0.11 5.3,2.19 6.5,5.23 7,7.42 -1.6,1.41 -5.4,4.12 -10.8,2.05 -1.6,1.08 -3.1,-1.67 -3.4,-2.84 l -16.2,-4.83 c -1.7,0.89 -3.8,1.14 -5.2,0 -1.7,0.75 -4,0.39 -5,-0.9 -0.6,0.29 -2.7,1.22 -4,0.9 -24.3,86.23 -46,182.6 -75.6,267.57 -3.8,10.73 -7.9,17.03 -16.5,24.38 -3.1,-10.91 -2.6,-17.46 0,-28.5 20.3,-85.62 47.9,-183.67 70.1,-269.6 0.1,0 -3.3,-1.18 -4,-2.74 -1.3,0.54 -3.9,-0.77 -4.8,-2.02 -1.7,0.12 -3.5,-0.9 -4.1,-2.44 l -15.4,-4.76 c -2.1,0.78 -3.5,1.16 -4.8,-0.24 -4.1,-0.42 -7.4,-4.89 -8,-7.05 1.6,-1.42 6.2,-3.92 10.6,-1.94 1.8,-0.37 3.6,0.86 4.8,2.96 l 15.2,4.47 c 1.2,-1.39 3.6,-0.76 5,0 1.5,-0.91 4.3,-0.35 5.2,0.67 1.5,-1.18 3.1,-1.29 4.8,-0.84 0.5,0.17 0.8,0.28 1.3,0.28 0.3,-0.64 1,-3.49 1.7,-5.94 -10.4,-4.55 -11.3,-8.98 -9.1,-14.03 0.1,-0.86 0.2,-1.73 0.6,-2.6 -5.6,-1.52 -10,-8.26 -7,-13.63 0.1,-2.24 1.2,-4.49 3.6,-6.3 l 0.2,0.05 h 0.2 c -3.7,-4.47 -6.2,-12.44 5.3,-14.25 -1.7,-9.57 4.2,-9.33 8.5,-10.72 2.5,-2.22 4.3,-2.84 8.2,-4.07 6,-0.46 9.2,-1.63 14.6,-4.46 4.5,-1.18 8.2,-0.9 12.9,1.18 2.5,1.38 3.4,2.82 4.3,4.97 6.5,3.09 8,4.27 9.2,11.67 6.4,8.24 11.2,29.61 12.5,33.76 6.1,18.77 16.2,34.57 28.4,50.54 -2.2,-13.27 0.5,-28.85 11.2,-36.88 1.5,28.82 13.4,43.42 26.3,63.18 3.7,-1.11 7.5,-2.31 11.3,-3.53 -9.2,-32.68 -17.3,-58.11 -31.6,-82.38 l 0.7,0.05 c -11.6,-19.4 -27.2,-38.13 -50.7,-59.23 8.9,-7.99 20.2,-15.47 29.8,-24.39 -2.8,-4.36 -5.3,-6.56 -8.8,-10.8 6.7,-4.14 34,-21.14 41.9,-26.05 -2.9,-5.49 -6.1,-8.97 -10,-15.15 30.6,-19.62 46,-27.2 77.2,-45.29 0.4,0.18 50.8,24.33 82.8,42.88 -2.9,4.04 -5.9,8.79 -9.1,13.82 17.3,10.36 31.8,19.97 45,28.69 -3.5,4.04 -5.6,6.35 -9.3,11.02 16.8,12 18.1,13.03 31,23.11 -52.9,49.56 -71.3,89.77 -91.4,146.44 5.8,2.03 11.5,3.94 16.8,5.88 16,-22.49 24.1,-31.66 30.8,-62.41 10.9,10.8 8.3,21.35 9.2,36.2 0.4,-0.37 0.8,-0.86 1.3,-1.28 -0.1,0.05 -0.2,0.12 -0.3,0.21 -0.2,0.14 -0.4,0.25 -0.5,0.41 0,-0.05 0.1,-0.16 0.1,-0.2 -0.1,0.11 -0.4,0.26 -0.6,0.51 12.1,-20.29 19.4,-31.32 28.9,-47.47 1,-9.05 1.2,-13.82 3.3,-18.69 0.1,0 0.2,0 0.3,-0.04 1.4,-3.61 3.9,-7.16 8.4,-12.32 0,-6.36 5.5,-12.31 10.2,-14.66 0.4,-1.88 0.7,-2.52 1.7,-3.95 3.6,-3.73 13.4,-4.05 18.7,-2.87 4.1,3.21 6.6,2.99 10.6,4.06 3.9,0.6 3.9,0.88 8.6,1.77 3.6,1.96 6.5,2.84 8.7,3.86 3,2.63 2.5,7.52 0,9.44 5.7,3.82 13.6,8.32 6,13.64 -0.4,0.34 -0.8,0.65 -1.2,0.91 3.4,6.06 2.8,12.47 -1.7,17.36 0,9.31 -4.5,14.04 -11.4,20.17 -0.1,0 -0.2,0.02 -0.3,0.09 12.9,44.01 26.5,100.69 40,151.67 5.7,-0.43 6.6,2.67 7.5,6 4.3,1.18 5.2,4.25 2.2,7.85 5.5,2.33 5.8,5.66 4.3,9.87 16.7,19.11 28.5,31.72 30.5,38.13 1.5,6.81 -3.8,20.64 -9.1,40.42 0.5,2.15 1.8,7.06 -3.6,8.45 -0.4,0.51 -0.9,0.9 -1.2,1.32 1.7,0.97 2.8,2.77 2.8,4.81 0,3.1 -2.5,5.57 -5.6,5.57 -3.1,0 -5.6,-2.47 -5.6,-5.57 0,-0.81 0.1,-1.65 0.5,-2.37 -1,-0.3 -2.2,-0.85 -3.5,-1.57 -5.1,1.14 -8,-3.07 -9.1,-6.15 -13,-13.99 -26.1,-24 -28.7,-30.56 -0.7,-6 -0.4,-20.91 3.8,-44.64 -5.4,-2.31 -5.9,-6.8 -2.8,-11.03 -4.7,-1.42 -5,-4.71 -2.3,-7.97 -0.9,-3.96 0.2,-6.4 2.8,-8.33 -12.2,-48.99 -25,-92.65 -43.7,-150.03 -3.5,0.91 -19.1,-1.8 -29.1,2.15 -9.2,13.14 -14.5,21.68 -20.1,32.76 13.8,-3.79 19.3,-2.93 35.9,0.25 -18.6,10.54 -24.8,15.09 -37.1,34.13 15.7,7.29 25.9,13.53 33.1,22.5 4,-21.91 10,-33.75 23.7,-43.62 1.2,3.8 2.3,7.58 3.5,11.34 v 396.82 c 0,2.64 2.1,4.78 4.7,4.78 2.6,0 4.7,-2.14 4.7,-4.78 v -364.57 c 5.3,18.52 10.3,37.24 15.1,56.03 -1.7,2.53 -2.4,5.46 -2.3,8.67 -2.2,4.44 -1.8,9.17 0.9,12.79 -0.6,4.32 0.6,8.54 3.8,11.78 -1.4,8.2 -2.4,16.48 -3,24.74 -0.4,5.47 -0.7,11.82 0,17.29 l 0.1,1.02 0.4,0.95 c 2.2,5.57 8.1,11.22 12.4,15.4 5.7,5.54 11.5,10.9 17,16.72 2.1,4.44 5.6,7.94 10,9.39 v 162.73 c 0,2.61 2.2,4.77 4.8,4.77 2.5,0 4.6,-2.16 4.6,-4.77 v -153.77 c 1.7,0.68 3.6,1.05 5.5,1.05 7.8,0 14.1,-6.21 14.1,-13.9 0,-0.97 -0.1,-1.93 -0.3,-2.86 1.3,-1.6 2.2,-3.57 2.6,-5.78 0.3,-2 0.2,-3.83 -0.1,-5.66 2.1,-7.79 4.6,-15.49 6.6,-23.28 1.5,-5.76 3.4,-13.28 2,-19.26 v -0.31 l -0.1,-0.24 c -1.8,-5.79 -7.4,-12.56 -11.3,-17.2 -5.9,-7.09 -12.1,-13.94 -18.2,-20.85 0.3,-2.22 0,-4.4 -0.8,-6.35 v -186.06 c 6.6,-4.12 13.4,-6.41 19.1,-6.41 11.6,-10.02 18.4,-12.69 34,-16.16 -18.8,22.3 -11.3,184.92 -11.9,320.92" />
            <path
               inkscape:connector-curvature="0"
               id="path332"
               style="fill:#ffffff;fill-opacity:1;fill-rule:evenodd;stroke:none"
               d="m 11760.9,3349.72 10.4,3.16 c 1.4,1.46 3.3,2.56 5.3,3.18 0.9,0.57 1.8,1.08 2.8,1.49 -11.5,44.3 -23.5,88.47 -35.3,132.68 v -147.21 c 2.3,2.53 5.2,4.5 8.3,5.47 2.6,1.57 5.5,1.84 8.5,1.23" />
            <path
               inkscape:connector-curvature="0"
               id="path334"
               style="fill:#ffffff;fill-opacity:1;fill-rule:evenodd;stroke:none"
               d="m 12229.9,3485.81 c -3.8,-14.39 -7.5,-28.77 -11.2,-43.2 -6.5,-25.73 -13,-51.62 -20.1,-77.27 8.6,-9.17 17.6,-17.37 24.5,-19.05 3.4,-6.4 7.9,-12.08 12.9,-16.76 v 161.29 c -1.5,-2.34 -3.6,-4.04 -6.1,-5.01" />
            <path
               inkscape:connector-curvature="0"
               id="path336"
               style="fill:#ffffff;fill-opacity:1;fill-rule:evenodd;stroke:none"
               d="m 12095.1,3490.57 h 3.3 v -4.78 h 6.4 v 8.35 h -3.1 v 4.22 h 3.1 v 6.6 h -3.1 v -3.6 h -3.3 v 3.6 h -3.3 v -3.6 h -3.4 v 3.6 h -3.4 v -6.6 h 3.4 v -4.22 h -3.4 v -8.35 h 6.8 v 4.78" />
            <path
               inkscape:connector-curvature="0"
               id="path338"
               style="fill:#ffffff;fill-opacity:1;fill-rule:evenodd;stroke:none"
               d="m 12079.4,3481.01 h -3.4 v -6.61 h 3.4 v -4.21 h -3.4 v -8.4 h 6.8 v 4.76 h 3.3 v -4.76 h 6.4 v 8.4 h -3 v 4.21 h 3 v 6.61 h -3 v -3.64 h -3.4 v 3.64 h -3.3 v -3.64 h -3.4 v 3.64" />
            <path
               inkscape:connector-curvature="0"
               id="path340"
               style="fill:#ffffff;fill-opacity:1;fill-rule:evenodd;stroke:none"
               d="m 12054.9,3481.01 h -3.5 v -6.61 h 3.5 v -4.21 h -3.5 v -8.4 h 6.9 v 4.76 h 3.3 v -4.76 h 6.4 v 8.4 h -3.1 v 4.21 h 3.1 v 6.61 h -3.1 v -3.64 h -3.3 v 3.64 h -3.3 v -3.64 h -3.4 v 3.64" />
            <path
               inkscape:connector-curvature="0"
               id="path342"
               style="fill:#ffffff;fill-opacity:1;fill-rule:evenodd;stroke:none"
               d="m 12070.6,3490.57 h 3.3 v -4.78 h 6.4 v 8.35 h -3.1 v 4.22 h 3.1 v 6.6 h -3.1 v -3.6 h -3.3 v 3.6 h -3.3 v -3.6 h -3.4 v 3.6 h -3.5 v -6.6 h 3.5 v -4.22 h -3.5 v -8.35 h 6.9 v 4.78" />
            <path
               inkscape:connector-curvature="0"
               id="path344"
               style="fill:#ffffff;fill-opacity:1;fill-rule:evenodd;stroke:none"
               d="m 12104,3481.01 h -3.5 v -6.61 h 3.5 v -4.21 h -3.5 v -8.4 h 6.9 v 4.76 h 3.3 v -4.76 h 6.4 v 8.4 h -3.1 v 4.21 h 3.1 v 6.61 h -3.1 v -3.64 h -3.3 v 3.64 h -3.3 v -3.64 h -3.4 v 3.64" />
            <path
               inkscape:connector-curvature="0"
               id="path346"
               style="fill:#ffffff;fill-opacity:1;fill-rule:evenodd;stroke:none"
               d="m 12119.6,3490.57 h 3.4 v -4.78 h 6.4 v 8.35 h -3.1 v 4.22 h 3.1 v 6.6 h -3.1 v -3.6 h -3.3 v 3.6 h -3.4 v -3.6 h -3.4 v 3.6 h -3.4 v -6.6 h 3.4 v -4.22 h -3.4 v -8.35 h 6.8 v 4.78" />
            <path
               inkscape:connector-curvature="0"
               id="path348"
               style="fill:#ffffff;fill-opacity:1;fill-rule:evenodd;stroke:none"
               d="m 12024.2,3656.65 c 4.2,0 6,0.59 12.8,2.77 -1.4,-2.18 -0.8,-4.79 0.5,-6.37 0,-2.63 0.6,-4.31 2.3,-6.36 -0.2,-2.05 0.1,-3.24 1.4,-4.41 0.9,-7.1 2.8,-10.8 7.4,-19.55 -3.4,-1.35 -6.5,-3.73 -6.5,-8.26 0,-6.38 6.8,-8.91 11.7,-8.91 2.5,-3.82 4.8,-5.01 8,-5.01 3.3,0 5.7,1.19 8.2,5.01 4.9,0 11.7,2.53 11.7,8.91 0,4.53 -3.1,6.91 -6.6,8.26 4.7,8.75 6.6,12.45 7.5,19.55 1.5,1.17 1.7,2.36 1.6,4.41 1.6,2.05 2.2,3.73 2.2,6.36 1.1,1.58 1.9,4.19 0.4,6.37 6.7,-2.18 8.7,-2.77 13,-2.77 13.3,0.12 16.3,5.76 20.5,11.99 -11.9,-2.65 -14.8,7.54 -25.2,7.54 4.2,0.25 8.2,7.9 8.2,18.85 0,12.94 -11.5,28.51 -24.8,28.51 9.8,-4.55 13.2,-14.25 12.8,-22.75 -0.3,-11.04 -4.9,-13.24 -9.2,-16.1 -6,3.37 -9,2.29 -14.1,-3.38 -0.9,3.51 -3.4,4.35 -6.2,4.35 -2.7,0 -5.1,-0.84 -6.2,-4.35 -4.9,5.67 -7.9,6.75 -14.1,3.38 -4,2.86 -8.6,5.06 -9.1,16.1 -0.2,8.5 3.2,18.2 12.9,22.75 -13.2,0 -24.6,-15.57 -24.6,-28.51 0,-10.95 3.8,-18.6 8.2,-18.85 -10.4,0 -13.3,-10.19 -25.2,-7.54 4.1,-6.23 7.3,-11.87 20.5,-11.99" />
            <path
               inkscape:connector-curvature="0"
               id="path350"
               style="fill:#ffffff;fill-opacity:1;fill-rule:evenodd;stroke:none"
               d="m 12053.1,3692.21 8.6,4.56 9.3,-4.66 -1.2,9.72 6.9,7.16 -9.6,1.84 -5.4,9.9 -4.7,-9.9 -10.5,-1.84 7.9,-6.8 -1.3,-9.98" />
            <path
               inkscape:connector-curvature="0"
               id="path352"
               style="fill:#ffffff;fill-opacity:1;fill-rule:evenodd;stroke:none"
               d="m 12012.1,3619.22 c -9.2,-2.76 -8.1,-3.22 -8.3,-5.26 0.4,-1.5 2.2,-1.82 4.1,-3.26 1.6,-1.32 1.9,-3.24 4.2,-3.24 2.7,0.84 4.2,0.72 4.3,8.62 0,-8.41 1.7,-7.54 3.7,-8.41 2.4,0 2.2,1.08 4.7,2.92 2.4,1.44 3.3,1.21 3.8,3.21 -0.3,1.69 1.2,3 -7.9,5.54 8.4,-2.45 8.9,-1.33 10.4,0.23 1.1,1.93 -1.6,3.22 -2.1,5.04 -0.4,1.91 -0.2,3.23 -1.6,4.43 -2,0.24 -2.9,1.68 -8.6,-4.68 6.1,6.85 4.5,6.97 3.1,8.77 -2.2,1.44 -4,0.09 -6.1,0.25 -3.1,0 -3.2,0.11 -5.2,-1.01 -0.6,-1.04 -2.9,-2.01 3,-8.15 -6.3,6.5 -6.2,4.48 -8.2,4.48 -1.9,-0.74 -1.2,-2.54 -2,-4.55 -0.6,-1.93 -2.3,-2.56 -1.6,-4.34 1.5,-1.7 1.4,-3.13 10.3,-0.59" />
            <path
               inkscape:connector-curvature="0"
               id="path354"
               style="fill:#ffffff;fill-opacity:1;fill-rule:evenodd;stroke:none"
               d="m 12121,3626.7 c -0.4,9.27 -25.9,9.86 -25.9,-8.39 0.4,-17.65 25.9,-16.38 26.3,-6.1 -6.7,-4.41 -14.8,0.65 -14.8,6.1 0,5.69 7.7,11.12 14.4,8.39" />
            <path
               inkscape:connector-curvature="0"
               id="path356"
               style="fill:#ffffff;fill-opacity:1;fill-rule:nonzero;stroke:none"
               d="m 11514.1,3810.58 c 6.2,11.81 8.9,21.85 11.2,34.62 l -28.6,14.83 c -5.4,2.79 -7.9,2.73 -11.4,-1.98 l -8.4,-11.25 -12.6,6.59 26.3,50.72 12.7,-6.59 -2.8,-9.17 c -1.7,-5.93 -0.2,-7.26 5.1,-10.04 l 37.6,-19.55 c -0.8,-13.73 -2.2,-36.25 -14.4,-59.89 -23.7,-45.57 -62,-49.97 -111.5,-24.28 -45.1,23.45 -70.4,63.07 -44.8,112.29 7.4,14.17 15.9,28.6 38.6,44.34 l 33.2,-21.61 -8,-15.5 -26,7.77 c -10.5,-8.15 -17,-14.34 -25,-29.82 -8.7,-16.78 -7.5,-26.97 -4.4,-36.78 3.6,-11.42 29.7,-30.69 45.8,-39.04 35.5,-18.44 70,-19.19 87.4,14.34" />
            <path
               inkscape:connector-curvature="0"
               id="path358"
               style="fill:#ffffff;fill-opacity:1;fill-rule:nonzero;stroke:none"
               d="m 11632,4017.2 c 29.7,-30.88 16.8,-65.24 -5,-86.25 -27.9,-26.91 -56.7,-25.34 -82.7,1.69 l -64.3,66.62 c -4.2,4.33 -6.4,5.26 -11.4,1.74 l -10.8,-7.37 -9.9,10.3 43.6,42.06 9.9,-10.31 -7.7,-10.47 c -3.7,-4.91 -2.9,-7.14 1.3,-11.52 l 61.6,-63.83 c 23.7,-24.57 45.9,-15.54 62.3,0.24 7,6.74 12.8,16.06 13.3,25.29 0.3,7.73 -4.4,17.56 -18.6,32.22 l -60.2,62.41 c -4.1,4.36 -6.4,5.27 -11.4,1.73 l -10.8,-7.31 -9.9,10.24 42.9,41.41 9.9,-10.29 -7.7,-10.49 c -3.7,-4.9 -2.9,-7.16 1.3,-11.52 l 64.3,-66.59" />
            <path
               inkscape:connector-curvature="0"
               id="path360"
               style="fill:#ffffff;fill-opacity:1;fill-rule:nonzero;stroke:none"
               d="m 11774,4034.64 -15.9,-7.69 -113.1,110.51 c -6.3,6.38 -11.6,5.13 -17.4,3.16 l -8.1,-2.82 -6.2,12.9 58.7,28.32 6.1,-12.68 -10.9,-6.87 c -4.4,-2.65 -5.7,-4.36 -4.4,-7.18 0.7,-1.29 2,-2.86 3.6,-4.49 l 87.4,-88.53 -19.2,121.49 c -0.4,1.95 -0.8,3.94 -1.3,5.02 -1.5,3.07 -4,3.14 -9,1.33 l -12.2,-4.31 -6.1,12.62 54.3,26.28 6.3,-12.87 -7.7,-4.78 c -5.1,-3.31 -7,-5.52 -6,-14.43 l 21.1,-154.98" />
            <path
               inkscape:connector-curvature="0"
               id="path362"
               style="fill:#ffffff;fill-opacity:1;fill-rule:nonzero;stroke:none"
               d="m 11849.7,4065.37 -2.1,14.37 12.3,4.11 c 5.9,1.84 6.5,4.19 5.6,10.17 l -18.8,122.39 c -0.9,5.97 -2.3,8.69 -8.4,8.5 l -12.9,-0.53 -2,13.43 123,18.85 4.9,-41.39 -15.3,-2.35 -4,16.5 c -1.4,5.97 -4.4,6.48 -10.2,5.57 l -55.6,-8.51 8.7,-56.25 56,8.58 2.7,-17.47 -56,-8.6 9.7,-63.72 55.8,8.56 c 5.7,0.9 8.5,2.3 8.1,8.34 l -1.4,18.17 16.1,2.46 7.9,-42.15 -124.1,-19.03" />
            <path
               inkscape:connector-curvature="0"
               id="path364"
               style="fill:#ffffff;fill-opacity:1;fill-rule:nonzero;stroke:none"
               d="m 12052.8,4174.07 21.3,-2.98 c 8.9,-1.22 16.6,-2.04 24.4,2.77 7.5,4.61 11.3,10.93 13.2,24.61 3,21.57 -10.9,30.83 -32.6,33.81 l -17.9,2.47 z m -9.7,-69.86 c -0.8,-5.98 0.1,-8.54 6,-10.11 l 15.3,-4.06 -2,-14.39 -63.1,8.7 2,14.15 13,0.41 c 6.1,0.13 7.4,2.18 8.2,8.14 l 16.8,121.9 c 0.9,6.04 0.2,8.31 -5.7,10.1 l -12.4,3.93 2,14.13 63.1,-8.71 c 33.1,-4.56 53.5,-17.65 49,-50.79 -4.7,-34.06 -34.5,-40.49 -49.9,-40.55 4.9,-1.86 10,-9.17 13.5,-17.01 l 20.8,-44.95 c 4.9,-10.44 11.1,-14.45 17.2,-15.3 2.6,-0.4 7.1,0.25 8.6,0.51 l -3,-13.05 c -2.1,-1.18 -9.6,-3.79 -19.7,-2.4 -12.9,1.77 -20,12.78 -25.3,24.02 l -25.1,55.57 c -2.4,5.24 -5.9,10.57 -13.3,11.59 l -8.6,1.21 -7.4,-53.04" />
            <path
               inkscape:connector-curvature="0"
               id="path366"
               style="fill:#ffffff;fill-opacity:1;fill-rule:nonzero;stroke:none"
               d="m 12215.8,4060.44 c -2.9,-5.33 -3.1,-7.71 1.7,-11.42 l 10.2,-8.09 -6.8,-12.54 -53.2,29 6.9,12.54 12.3,-4.25 c 5.8,-2 7.7,-0.58 10.6,4.74 l 59.1,108.2 c 2.9,5.32 3.4,8.33 -1.6,11.87 l -10.3,7.31 6.8,12.57 35.7,-19.51 11.1,-161.15 53.1,97.14 c 2.9,5.32 3.6,8.2 -1.3,11.78 l -10.4,7.28 6.9,12.54 52.5,-28.68 -6.9,-12.52 -11.7,4.77 c -5.7,2.27 -7.9,0.17 -10.8,-5.15 l -71.4,-130.76 -18.7,10.23 -10.9,161.07 -52.9,-96.97" />
            <path
               inkscape:connector-curvature="0"
               id="path368"
               style="fill:#ffffff;fill-opacity:1;fill-rule:nonzero;stroke:none"
               d="m 12451.9,3914.07 c -31,-29.66 -65.3,-16.55 -86.2,5.35 -26.8,27.97 -25.1,56.75 2,82.7 l 66.8,63.96 c 4.4,4.23 5.3,6.4 1.8,11.42 l -7.3,10.84 10.4,9.85 41.8,-43.74 -10.3,-9.88 -10.4,7.75 c -4.9,3.72 -7.2,2.91 -11.6,-1.26 l -64,-61.29 c -24.7,-23.64 -15.8,-45.96 0,-62.4 6.7,-6.97 16,-12.84 25.2,-13.37 7.7,-0.36 17.6,4.39 32.3,18.45 l 62.6,59.99 c 4.4,4.17 5.3,6.36 1.8,11.42 l -7.2,10.76 10.3,9.89 41.2,-43.06 -10.3,-9.89 -10.5,7.79 c -4.9,3.71 -7.2,2.88 -11.5,-1.29 l -66.9,-63.99" />
            <path
               inkscape:connector-curvature="0"
               id="path370"
               style="fill:#ffffff;fill-opacity:1;fill-rule:nonzero;stroke:none"
               d="m 12433.9,3841.36 12.7,6.46 7.8,-10.46 c 3.6,-4.96 6,-4.85 11.4,-2.11 l 109.7,55.66 c 5.4,2.73 6.9,4.57 5.1,10.4 l -3.9,12.42 12.7,6.48 28.1,-55.31 -12.8,-6.48 -8.4,11.76 c -3.6,4.97 -6,4.87 -11.4,2.14 l -116.9,-59.24 21.8,-43.04 c 2.7,-5.17 4.8,-7.33 10.5,-5.02 l 16.8,6.92 7.4,-14.46 -37.6,-20.66 -53,104.54" />
            <path
               inkscape:connector-curvature="0"
               id="path372"
               style="fill:#ffffff;fill-opacity:1;fill-rule:nonzero;stroke:none"
               d="m 11433.6,3316.13 9.6,-19.97 c 3.9,-8.3 7.6,-15.39 16.1,-19.31 8.2,-3.84 15.8,-3.53 28.6,2.61 20.3,9.68 20.3,26.88 10.6,47.11 l -8.1,16.84 z m -65.5,-31.29 c -5.6,-2.71 -7.3,-4.91 -5.3,-10.82 l 5.2,-15.49 -13.5,-6.49 -28.3,59.17 13.3,6.34 7.7,-10.95 c 3.6,-5.19 6.1,-5.14 11.7,-2.42 l 114.2,54.71 c 5.7,2.71 7.2,4.54 5.4,10.61 l -3.7,12.88 13.3,6.36 28.3,-59.14 c 14.9,-31.04 15.3,-56.03 -15.8,-70.88 -31.9,-15.3 -54.3,6.61 -63.1,19.81 1.1,-5.26 -2.2,-13.77 -6.9,-21.29 l -26.9,-43.26 c -6.2,-10.15 -6.1,-17.86 -3.4,-23.49 1.2,-2.46 4.3,-5.95 5.4,-7.09 l -12.9,-4.8 c -2.2,1.14 -8.7,6.05 -13.3,15.51 -5.8,12.14 -0.3,24.41 6.3,35.32 l 33.5,53.1 c 3.1,5.07 5.7,11.02 2.4,18.02 l -3.9,8.06 -49.7,-23.77" />
            <path
               inkscape:connector-curvature="0"
               id="path374"
               style="fill:#ffffff;fill-opacity:1;fill-rule:nonzero;stroke:none"
               d="m 11570.6,3191.13 c -13.2,-0.93 -37.7,-17.76 -53.5,-33.72 -31.6,-31.84 -36.3,-65.7 -9.8,-92.05 11.5,-11.42 23,-17.53 36.2,-16.6 13.3,0.95 37.7,17.82 53.5,33.75 31.6,31.87 36.4,65.72 9.8,92.04 -11.5,11.41 -23,17.54 -36.2,16.58 m -82.7,-132.52 c -37.5,37.19 -24.6,78.85 13.1,116.92 33.4,33.64 81.8,48.83 125.2,5.79 37.5,-37.21 24.7,-78.87 -13.1,-116.91 -33.3,-33.64 -81.8,-48.83 -125.2,-5.8" />
            <path
               inkscape:connector-curvature="0"
               id="path376"
               style="fill:#ffffff;fill-opacity:1;fill-rule:nonzero;stroke:none"
               d="m 11630.4,2941.54 5.4,13.66 13.1,-2.81 c 6.2,-1.38 7.4,0.31 10.1,5.91 l 56,117.24 c 1.7,4.44 0.6,7 -4.2,9.73 l -11.5,6.16 5.5,13.69 46.3,-18.39 -8.1,-154 95,119.47 49.1,-19.51 -5.4,-13.67 -13.6,3.78 c -5.5,1.42 -8.1,0.54 -10.1,-4.57 l -38.3,-123.69 c -1.9,-5.99 -2.2,-8.03 3.2,-11.25 l 12.9,-7.5 -5.5,-13.68 -59.3,23.57 5.5,13.64 13.1,-3.56 c 5.3,-1.33 7.8,0.36 9.6,4.73 l 38.7,122.49 -100.5,-123.98 -16.4,6.55 7.1,161.07 -52.7,-116.42 c -1.7,-4.97 -1.2,-7.83 3.9,-10.66 l 11.7,-6.24 -5.5,-13.67 -55.1,21.91" />
            <path
               inkscape:connector-curvature="0"
               id="path378"
               style="fill:#ffffff;fill-opacity:1;fill-rule:nonzero;stroke:none"
               d="m 11986.1,3010.14 -2.7,-11.22 -23.6,-70.52 53.8,0.39 -24.7,70.14 z m 11.2,50.75 28.7,-27.84 -9.5,-6.71 -28.6,21.84 -28,-22.16 -9.7,6.55 28.4,28.21 z m -20.6,-29.41 23.2,0.18 54.5,-151.2 c 3,-8.69 5.8,-10.18 12,-11.33 l 9.8,-1.7 0.1,-14.73 -64.1,-0.45 -0.1,14.18 13.7,2.39 c 4.5,0.75 6.5,2.77 6.4,6.01 0,1.49 -0.2,2.96 -1,4.97 l -11.2,31.58 -66.1,-0.5 -10.2,-30.99 c -0.8,-1.99 -1,-3.73 -1,-5.23 0.1,-3.74 2.3,-5.73 6.8,-6.45 l 13.5,-2.14 0.1,-14.22 -59.9,-0.46 -0.1,14.76 9.5,1.79 c 6.2,1.29 8.7,2.79 11.6,11.56 l 52.5,151.98" />
            <path
               inkscape:connector-curvature="0"
               id="path380"
               style="fill:#ffffff;fill-opacity:1;fill-rule:nonzero;stroke:none"
               d="m 12199.8,2909.84 c 2.3,-5.77 4,-7.52 10.2,-6.15 l 13.1,2.73 5.4,-13.71 -58,-22.71 -5.4,13.67 11.5,6.91 c 5.4,3.19 5.5,5.65 3.2,11.45 l -46.3,118.16 c -2.3,5.79 -4.3,8.2 -10.4,6.64 l -12.6,-3.37 -5.4,13.74 39,15.3 134.5,-97.8 -41.6,106.1 c -2.2,5.78 -4.1,8.27 -10.1,6.71 l -12.7,-3.34 -5.3,13.71 57.3,22.45 5.4,-13.68 -11.5,-6.13 c -5.6,-2.98 -5.4,-6.13 -3.1,-11.9 l 56,-142.74 -20.4,-8.04 -134.3,97.85 41.5,-105.85" />
            <path
               inkscape:connector-curvature="0"
               id="path382"
               style="fill:#ffffff;fill-opacity:1;fill-rule:nonzero;stroke:none"
               d="m 12453.7,3024.13 -48.8,-38.76 -9.2,11.51 9,9.98 c 4.3,4.67 3.6,7.03 -0.2,11.9 l -78.8,99.22 c -3.8,4.91 -6,6.04 -11.5,2.95 l -11.8,-6.47 -9.1,11.5 48.8,38.77 9.2,-11.52 -9,-9.98 c -4.3,-4.66 -3.6,-6.99 0.2,-11.89 l 78.8,-99.24 c 3.8,-4.89 6,-5.99 11.5,-2.89 l 11.8,6.43 9.1,-11.51" />
            <path
               inkscape:connector-curvature="0"
               id="path384"
               style="fill:#ffffff;fill-opacity:1;fill-rule:nonzero;stroke:none"
               d="m 12518.7,3085.3 -12,8.93 6.1,11.94 c 2.9,5.6 1.7,7.72 -3.3,11.46 l -102.2,76.01 c -5,3.67 -8,4.68 -12.4,0.11 l -9,-9.71 -11.2,8.35 76.4,102.84 33.5,-26.78 -9.5,-12.79 -14.9,9.2 c -5.3,3.3 -7.9,1.52 -11.4,-3.31 l -34.5,-46.39 47,-34.96 34.8,46.8 14.6,-10.82 -34.8,-46.85 53.2,-39.53 34.7,46.59 c 3.6,4.82 4.5,7.79 -0.2,11.95 l -14.1,12.32 10,13.42 36.3,-25.1 -77.1,-103.68" />
            <path
               inkscape:connector-curvature="0"
               id="path386"
               style="fill:#ffffff;fill-opacity:1;fill-rule:nonzero;stroke:none"
               d="m 12656.7,3323.86 -23.1,-57.86 -13.7,5.43 2.8,13.11 c 1.4,6.13 -0.3,7.9 -6.1,10.23 l -117.6,46.91 c -5.8,2.32 -8.3,2.24 -11.5,-3.17 l -7,-11.47 -13.6,5.48 23.1,57.88 13.6,-5.45 -2.8,-13.11 c -1.4,-6.14 0.3,-7.88 6.1,-10.23 l 117.7,-46.91 c 5.7,-2.36 8.2,-2.22 11.5,3.17 l 6.9,11.45 13.7,-5.46" />
          </g>
        </g>
      </g>
    </g>
  </g>
</svg>
